<?xml version="1.0" encoding="utf-8" standalone="no"?>
<!DOCTYPE svg PUBLIC "-//W3C//DTD SVG 1.1//EN"
  "http://www.w3.org/Graphics/SVG/1.1/DTD/svg11.dtd">
<svg xmlns:xlink="http://www.w3.org/1999/xlink" width="460.8pt" height="345.6pt" viewBox="0 0 460.8 345.6" xmlns="http://www.w3.org/2000/svg" version="1.1">
 <metadata>
  <rdf:RDF xmlns:dc="http://purl.org/dc/elements/1.1/" xmlns:cc="http://creativecommons.org/ns#" xmlns:rdf="http://www.w3.org/1999/02/22-rdf-syntax-ns#">
   <cc:Work>
    <dc:type rdf:resource="http://purl.org/dc/dcmitype/StillImage"/>
    <dc:date>2025-04-21T10:01:12.908332</dc:date>
    <dc:format>image/svg+xml</dc:format>
    <dc:creator>
     <cc:Agent>
      <dc:title>Matplotlib v3.7.3, https://matplotlib.org/</dc:title>
     </cc:Agent>
    </dc:creator>
   </cc:Work>
  </rdf:RDF>
 </metadata>
 <defs>
  <style type="text/css">*{stroke-linejoin: round; stroke-linecap: butt}</style>
 </defs>
 <g id="figure_1">
  <g id="patch_1">
   <path d="M 0 345.6 
L 460.8 345.6 
L 460.8 0 
L 0 0 
z
" style="fill: #ffffff"/>
  </g>
  <g id="axes_1">
   <g id="patch_2">
    <path d="M 54.74 293.56 
L 450 293.56 
L 450 63.648 
L 54.74 63.648 
z
" style="fill: #ffffff"/>
   </g>
   <g id="patch_3">
    <path d="M 72.706364 293.56 
L 75.804013 293.56 
L 75.804013 74.59619 
L 72.706364 74.59619 
z
" clip-path="url(#p37a61ecd74)" style="fill: #1f77b4; fill-opacity: 0.5; stroke: #000000; stroke-width: 0.309765; stroke-linejoin: miter"/>
   </g>
   <g id="patch_4">
    <path d="M 75.804013 293.56 
L 78.901661 293.56 
L 78.901661 223.491581 
L 75.804013 223.491581 
z
" clip-path="url(#p37a61ecd74)" style="fill: #1f77b4; fill-opacity: 0.5; stroke: #000000; stroke-width: 0.309765; stroke-linejoin: miter"/>
   </g>
   <g id="patch_5">
    <path d="M 78.901661 293.56 
L 81.99931 293.56 
L 81.99931 267.284343 
L 78.901661 267.284343 
z
" clip-path="url(#p37a61ecd74)" style="fill: #1f77b4; fill-opacity: 0.5; stroke: #000000; stroke-width: 0.309765; stroke-linejoin: miter"/>
   </g>
   <g id="patch_6">
    <path d="M 81.99931 293.56 
L 85.096959 293.56 
L 85.096959 284.801448 
L 81.99931 284.801448 
z
" clip-path="url(#p37a61ecd74)" style="fill: #1f77b4; fill-opacity: 0.5; stroke: #000000; stroke-width: 0.309765; stroke-linejoin: miter"/>
   </g>
   <g id="patch_7">
    <path d="M 85.096959 293.56 
L 88.194608 293.56 
L 88.194608 293.56 
L 85.096959 293.56 
z
" clip-path="url(#p37a61ecd74)" style="fill: #1f77b4; fill-opacity: 0.5; stroke: #000000; stroke-width: 0.309765; stroke-linejoin: miter"/>
   </g>
   <g id="patch_8">
    <path d="M 88.194608 293.56 
L 91.292257 293.56 
L 91.292257 284.801448 
L 88.194608 284.801448 
z
" clip-path="url(#p37a61ecd74)" style="fill: #1f77b4; fill-opacity: 0.5; stroke: #000000; stroke-width: 0.309765; stroke-linejoin: miter"/>
   </g>
   <g id="patch_9">
    <path d="M 91.292257 293.56 
L 94.389906 293.56 
L 94.389906 284.801448 
L 91.292257 284.801448 
z
" clip-path="url(#p37a61ecd74)" style="fill: #1f77b4; fill-opacity: 0.5; stroke: #000000; stroke-width: 0.309765; stroke-linejoin: miter"/>
   </g>
   <g id="patch_10">
    <path d="M 94.389906 293.56 
L 97.487555 293.56 
L 97.487555 293.56 
L 94.389906 293.56 
z
" clip-path="url(#p37a61ecd74)" style="fill: #1f77b4; fill-opacity: 0.5; stroke: #000000; stroke-width: 0.309765; stroke-linejoin: miter"/>
   </g>
   <g id="patch_11">
    <path d="M 97.487555 293.56 
L 100.585204 293.56 
L 100.585204 293.56 
L 97.487555 293.56 
z
" clip-path="url(#p37a61ecd74)" style="fill: #1f77b4; fill-opacity: 0.5; stroke: #000000; stroke-width: 0.309765; stroke-linejoin: miter"/>
   </g>
   <g id="patch_12">
    <path d="M 100.585204 293.56 
L 103.682853 293.56 
L 103.682853 293.56 
L 100.585204 293.56 
z
" clip-path="url(#p37a61ecd74)" style="fill: #1f77b4; fill-opacity: 0.5; stroke: #000000; stroke-width: 0.309765; stroke-linejoin: miter"/>
   </g>
   <g id="patch_13">
    <path d="M 103.682853 293.56 
L 106.780502 293.56 
L 106.780502 293.56 
L 103.682853 293.56 
z
" clip-path="url(#p37a61ecd74)" style="fill: #1f77b4; fill-opacity: 0.5; stroke: #000000; stroke-width: 0.309765; stroke-linejoin: miter"/>
   </g>
   <g id="patch_14">
    <path d="M 106.780502 293.56 
L 109.87815 293.56 
L 109.87815 284.801448 
L 106.780502 284.801448 
z
" clip-path="url(#p37a61ecd74)" style="fill: #1f77b4; fill-opacity: 0.5; stroke: #000000; stroke-width: 0.309765; stroke-linejoin: miter"/>
   </g>
   <g id="patch_15">
    <path d="M 109.87815 293.56 
L 112.975799 293.56 
L 112.975799 293.56 
L 109.87815 293.56 
z
" clip-path="url(#p37a61ecd74)" style="fill: #1f77b4; fill-opacity: 0.5; stroke: #000000; stroke-width: 0.309765; stroke-linejoin: miter"/>
   </g>
   <g id="patch_16">
    <path d="M 112.975799 293.56 
L 116.073448 293.56 
L 116.073448 293.56 
L 112.975799 293.56 
z
" clip-path="url(#p37a61ecd74)" style="fill: #1f77b4; fill-opacity: 0.5; stroke: #000000; stroke-width: 0.309765; stroke-linejoin: miter"/>
   </g>
   <g id="patch_17">
    <path d="M 116.073448 293.56 
L 119.171097 293.56 
L 119.171097 293.56 
L 116.073448 293.56 
z
" clip-path="url(#p37a61ecd74)" style="fill: #1f77b4; fill-opacity: 0.5; stroke: #000000; stroke-width: 0.309765; stroke-linejoin: miter"/>
   </g>
   <g id="patch_18">
    <path d="M 119.171097 293.56 
L 122.268746 293.56 
L 122.268746 293.56 
L 119.171097 293.56 
z
" clip-path="url(#p37a61ecd74)" style="fill: #1f77b4; fill-opacity: 0.5; stroke: #000000; stroke-width: 0.309765; stroke-linejoin: miter"/>
   </g>
   <g id="patch_19">
    <path d="M 122.268746 293.56 
L 125.366395 293.56 
L 125.366395 293.56 
L 122.268746 293.56 
z
" clip-path="url(#p37a61ecd74)" style="fill: #1f77b4; fill-opacity: 0.5; stroke: #000000; stroke-width: 0.309765; stroke-linejoin: miter"/>
   </g>
   <g id="patch_20">
    <path d="M 125.366395 293.56 
L 128.464044 293.56 
L 128.464044 293.56 
L 125.366395 293.56 
z
" clip-path="url(#p37a61ecd74)" style="fill: #1f77b4; fill-opacity: 0.5; stroke: #000000; stroke-width: 0.309765; stroke-linejoin: miter"/>
   </g>
   <g id="patch_21">
    <path d="M 128.464044 293.56 
L 131.561693 293.56 
L 131.561693 293.56 
L 128.464044 293.56 
z
" clip-path="url(#p37a61ecd74)" style="fill: #1f77b4; fill-opacity: 0.5; stroke: #000000; stroke-width: 0.309765; stroke-linejoin: miter"/>
   </g>
   <g id="patch_22">
    <path d="M 131.561693 293.56 
L 134.659342 293.56 
L 134.659342 293.56 
L 131.561693 293.56 
z
" clip-path="url(#p37a61ecd74)" style="fill: #1f77b4; fill-opacity: 0.5; stroke: #000000; stroke-width: 0.309765; stroke-linejoin: miter"/>
   </g>
   <g id="patch_23">
    <path d="M 134.659342 293.56 
L 137.756991 293.56 
L 137.756991 293.56 
L 134.659342 293.56 
z
" clip-path="url(#p37a61ecd74)" style="fill: #1f77b4; fill-opacity: 0.5; stroke: #000000; stroke-width: 0.309765; stroke-linejoin: miter"/>
   </g>
   <g id="patch_24">
    <path d="M 137.756991 293.56 
L 140.854639 293.56 
L 140.854639 293.56 
L 137.756991 293.56 
z
" clip-path="url(#p37a61ecd74)" style="fill: #1f77b4; fill-opacity: 0.5; stroke: #000000; stroke-width: 0.309765; stroke-linejoin: miter"/>
   </g>
   <g id="patch_25">
    <path d="M 140.854639 293.56 
L 143.952288 293.56 
L 143.952288 293.56 
L 140.854639 293.56 
z
" clip-path="url(#p37a61ecd74)" style="fill: #1f77b4; fill-opacity: 0.5; stroke: #000000; stroke-width: 0.309765; stroke-linejoin: miter"/>
   </g>
   <g id="patch_26">
    <path d="M 143.952288 293.56 
L 147.049937 293.56 
L 147.049937 293.56 
L 143.952288 293.56 
z
" clip-path="url(#p37a61ecd74)" style="fill: #1f77b4; fill-opacity: 0.5; stroke: #000000; stroke-width: 0.309765; stroke-linejoin: miter"/>
   </g>
   <g id="patch_27">
    <path d="M 147.049937 293.56 
L 150.147586 293.56 
L 150.147586 293.56 
L 147.049937 293.56 
z
" clip-path="url(#p37a61ecd74)" style="fill: #1f77b4; fill-opacity: 0.5; stroke: #000000; stroke-width: 0.309765; stroke-linejoin: miter"/>
   </g>
   <g id="patch_28">
    <path d="M 150.147586 293.56 
L 153.245235 293.56 
L 153.245235 293.56 
L 150.147586 293.56 
z
" clip-path="url(#p37a61ecd74)" style="fill: #1f77b4; fill-opacity: 0.5; stroke: #000000; stroke-width: 0.309765; stroke-linejoin: miter"/>
   </g>
   <g id="patch_29">
    <path d="M 153.245235 293.56 
L 156.342884 293.56 
L 156.342884 293.56 
L 153.245235 293.56 
z
" clip-path="url(#p37a61ecd74)" style="fill: #1f77b4; fill-opacity: 0.5; stroke: #000000; stroke-width: 0.309765; stroke-linejoin: miter"/>
   </g>
   <g id="patch_30">
    <path d="M 156.342884 293.56 
L 159.440533 293.56 
L 159.440533 293.56 
L 156.342884 293.56 
z
" clip-path="url(#p37a61ecd74)" style="fill: #1f77b4; fill-opacity: 0.5; stroke: #000000; stroke-width: 0.309765; stroke-linejoin: miter"/>
   </g>
   <g id="patch_31">
    <path d="M 159.440533 293.56 
L 162.538182 293.56 
L 162.538182 293.56 
L 159.440533 293.56 
z
" clip-path="url(#p37a61ecd74)" style="fill: #1f77b4; fill-opacity: 0.5; stroke: #000000; stroke-width: 0.309765; stroke-linejoin: miter"/>
   </g>
   <g id="patch_32">
    <path d="M 162.538182 293.56 
L 165.635831 293.56 
L 165.635831 293.56 
L 162.538182 293.56 
z
" clip-path="url(#p37a61ecd74)" style="fill: #1f77b4; fill-opacity: 0.5; stroke: #000000; stroke-width: 0.309765; stroke-linejoin: miter"/>
   </g>
   <g id="patch_33">
    <path d="M 165.635831 293.56 
L 168.73348 293.56 
L 168.73348 293.56 
L 165.635831 293.56 
z
" clip-path="url(#p37a61ecd74)" style="fill: #1f77b4; fill-opacity: 0.5; stroke: #000000; stroke-width: 0.309765; stroke-linejoin: miter"/>
   </g>
   <g id="patch_34">
    <path d="M 168.73348 293.56 
L 171.831129 293.56 
L 171.831129 293.56 
L 168.73348 293.56 
z
" clip-path="url(#p37a61ecd74)" style="fill: #1f77b4; fill-opacity: 0.5; stroke: #000000; stroke-width: 0.309765; stroke-linejoin: miter"/>
   </g>
   <g id="patch_35">
    <path d="M 171.831129 293.56 
L 174.928777 293.56 
L 174.928777 293.56 
L 171.831129 293.56 
z
" clip-path="url(#p37a61ecd74)" style="fill: #1f77b4; fill-opacity: 0.5; stroke: #000000; stroke-width: 0.309765; stroke-linejoin: miter"/>
   </g>
   <g id="patch_36">
    <path d="M 174.928777 293.56 
L 178.026426 293.56 
L 178.026426 293.56 
L 174.928777 293.56 
z
" clip-path="url(#p37a61ecd74)" style="fill: #1f77b4; fill-opacity: 0.5; stroke: #000000; stroke-width: 0.309765; stroke-linejoin: miter"/>
   </g>
   <g id="patch_37">
    <path d="M 178.026426 293.56 
L 181.124075 293.56 
L 181.124075 293.56 
L 178.026426 293.56 
z
" clip-path="url(#p37a61ecd74)" style="fill: #1f77b4; fill-opacity: 0.5; stroke: #000000; stroke-width: 0.309765; stroke-linejoin: miter"/>
   </g>
   <g id="patch_38">
    <path d="M 181.124075 293.56 
L 184.221724 293.56 
L 184.221724 293.56 
L 181.124075 293.56 
z
" clip-path="url(#p37a61ecd74)" style="fill: #1f77b4; fill-opacity: 0.5; stroke: #000000; stroke-width: 0.309765; stroke-linejoin: miter"/>
   </g>
   <g id="patch_39">
    <path d="M 184.221724 293.56 
L 187.319373 293.56 
L 187.319373 293.56 
L 184.221724 293.56 
z
" clip-path="url(#p37a61ecd74)" style="fill: #1f77b4; fill-opacity: 0.5; stroke: #000000; stroke-width: 0.309765; stroke-linejoin: miter"/>
   </g>
   <g id="patch_40">
    <path d="M 187.319373 293.56 
L 190.417022 293.56 
L 190.417022 293.56 
L 187.319373 293.56 
z
" clip-path="url(#p37a61ecd74)" style="fill: #1f77b4; fill-opacity: 0.5; stroke: #000000; stroke-width: 0.309765; stroke-linejoin: miter"/>
   </g>
   <g id="patch_41">
    <path d="M 190.417022 293.56 
L 193.514671 293.56 
L 193.514671 293.56 
L 190.417022 293.56 
z
" clip-path="url(#p37a61ecd74)" style="fill: #1f77b4; fill-opacity: 0.5; stroke: #000000; stroke-width: 0.309765; stroke-linejoin: miter"/>
   </g>
   <g id="patch_42">
    <path d="M 193.514671 293.56 
L 196.61232 293.56 
L 196.61232 293.56 
L 193.514671 293.56 
z
" clip-path="url(#p37a61ecd74)" style="fill: #1f77b4; fill-opacity: 0.5; stroke: #000000; stroke-width: 0.309765; stroke-linejoin: miter"/>
   </g>
   <g id="patch_43">
    <path d="M 196.61232 293.56 
L 199.709969 293.56 
L 199.709969 293.56 
L 196.61232 293.56 
z
" clip-path="url(#p37a61ecd74)" style="fill: #1f77b4; fill-opacity: 0.5; stroke: #000000; stroke-width: 0.309765; stroke-linejoin: miter"/>
   </g>
   <g id="patch_44">
    <path d="M 199.709969 293.56 
L 202.807618 293.56 
L 202.807618 293.56 
L 199.709969 293.56 
z
" clip-path="url(#p37a61ecd74)" style="fill: #1f77b4; fill-opacity: 0.5; stroke: #000000; stroke-width: 0.309765; stroke-linejoin: miter"/>
   </g>
   <g id="patch_45">
    <path d="M 202.807618 293.56 
L 205.905266 293.56 
L 205.905266 293.56 
L 202.807618 293.56 
z
" clip-path="url(#p37a61ecd74)" style="fill: #1f77b4; fill-opacity: 0.5; stroke: #000000; stroke-width: 0.309765; stroke-linejoin: miter"/>
   </g>
   <g id="patch_46">
    <path d="M 205.905266 293.56 
L 209.002915 293.56 
L 209.002915 293.56 
L 205.905266 293.56 
z
" clip-path="url(#p37a61ecd74)" style="fill: #1f77b4; fill-opacity: 0.5; stroke: #000000; stroke-width: 0.309765; stroke-linejoin: miter"/>
   </g>
   <g id="patch_47">
    <path d="M 209.002915 293.56 
L 212.100564 293.56 
L 212.100564 293.56 
L 209.002915 293.56 
z
" clip-path="url(#p37a61ecd74)" style="fill: #1f77b4; fill-opacity: 0.5; stroke: #000000; stroke-width: 0.309765; stroke-linejoin: miter"/>
   </g>
   <g id="patch_48">
    <path d="M 212.100564 293.56 
L 215.198213 293.56 
L 215.198213 293.56 
L 212.100564 293.56 
z
" clip-path="url(#p37a61ecd74)" style="fill: #1f77b4; fill-opacity: 0.5; stroke: #000000; stroke-width: 0.309765; stroke-linejoin: miter"/>
   </g>
   <g id="patch_49">
    <path d="M 215.198213 293.56 
L 218.295862 293.56 
L 218.295862 293.56 
L 215.198213 293.56 
z
" clip-path="url(#p37a61ecd74)" style="fill: #1f77b4; fill-opacity: 0.5; stroke: #000000; stroke-width: 0.309765; stroke-linejoin: miter"/>
   </g>
   <g id="patch_50">
    <path d="M 218.295862 293.56 
L 221.393511 293.56 
L 221.393511 293.56 
L 218.295862 293.56 
z
" clip-path="url(#p37a61ecd74)" style="fill: #1f77b4; fill-opacity: 0.5; stroke: #000000; stroke-width: 0.309765; stroke-linejoin: miter"/>
   </g>
   <g id="patch_51">
    <path d="M 221.393511 293.56 
L 224.49116 293.56 
L 224.49116 293.56 
L 221.393511 293.56 
z
" clip-path="url(#p37a61ecd74)" style="fill: #1f77b4; fill-opacity: 0.5; stroke: #000000; stroke-width: 0.309765; stroke-linejoin: miter"/>
   </g>
   <g id="patch_52">
    <path d="M 224.49116 293.56 
L 227.588809 293.56 
L 227.588809 293.56 
L 224.49116 293.56 
z
" clip-path="url(#p37a61ecd74)" style="fill: #1f77b4; fill-opacity: 0.5; stroke: #000000; stroke-width: 0.309765; stroke-linejoin: miter"/>
   </g>
   <g id="patch_53">
    <path d="M 227.588809 293.56 
L 230.686458 293.56 
L 230.686458 293.56 
L 227.588809 293.56 
z
" clip-path="url(#p37a61ecd74)" style="fill: #1f77b4; fill-opacity: 0.5; stroke: #000000; stroke-width: 0.309765; stroke-linejoin: miter"/>
   </g>
   <g id="patch_54">
    <path d="M 230.686458 293.56 
L 233.784107 293.56 
L 233.784107 293.56 
L 230.686458 293.56 
z
" clip-path="url(#p37a61ecd74)" style="fill: #1f77b4; fill-opacity: 0.5; stroke: #000000; stroke-width: 0.309765; stroke-linejoin: miter"/>
   </g>
   <g id="patch_55">
    <path d="M 233.784107 293.56 
L 236.881755 293.56 
L 236.881755 293.56 
L 233.784107 293.56 
z
" clip-path="url(#p37a61ecd74)" style="fill: #1f77b4; fill-opacity: 0.5; stroke: #000000; stroke-width: 0.309765; stroke-linejoin: miter"/>
   </g>
   <g id="patch_56">
    <path d="M 236.881755 293.56 
L 239.979404 293.56 
L 239.979404 293.56 
L 236.881755 293.56 
z
" clip-path="url(#p37a61ecd74)" style="fill: #1f77b4; fill-opacity: 0.5; stroke: #000000; stroke-width: 0.309765; stroke-linejoin: miter"/>
   </g>
   <g id="patch_57">
    <path d="M 239.979404 293.56 
L 243.077053 293.56 
L 243.077053 293.56 
L 239.979404 293.56 
z
" clip-path="url(#p37a61ecd74)" style="fill: #1f77b4; fill-opacity: 0.5; stroke: #000000; stroke-width: 0.309765; stroke-linejoin: miter"/>
   </g>
   <g id="patch_58">
    <path d="M 243.077053 293.56 
L 246.174702 293.56 
L 246.174702 293.56 
L 243.077053 293.56 
z
" clip-path="url(#p37a61ecd74)" style="fill: #1f77b4; fill-opacity: 0.5; stroke: #000000; stroke-width: 0.309765; stroke-linejoin: miter"/>
   </g>
   <g id="patch_59">
    <path d="M 246.174702 293.56 
L 249.272351 293.56 
L 249.272351 293.56 
L 246.174702 293.56 
z
" clip-path="url(#p37a61ecd74)" style="fill: #1f77b4; fill-opacity: 0.5; stroke: #000000; stroke-width: 0.309765; stroke-linejoin: miter"/>
   </g>
   <g id="patch_60">
    <path d="M 249.272351 293.56 
L 252.37 293.56 
L 252.37 293.56 
L 249.272351 293.56 
z
" clip-path="url(#p37a61ecd74)" style="fill: #1f77b4; fill-opacity: 0.5; stroke: #000000; stroke-width: 0.309765; stroke-linejoin: miter"/>
   </g>
   <g id="patch_61">
    <path d="M 252.37 293.56 
L 255.467649 293.56 
L 255.467649 293.56 
L 252.37 293.56 
z
" clip-path="url(#p37a61ecd74)" style="fill: #1f77b4; fill-opacity: 0.5; stroke: #000000; stroke-width: 0.309765; stroke-linejoin: miter"/>
   </g>
   <g id="patch_62">
    <path d="M 255.467649 293.56 
L 258.565298 293.56 
L 258.565298 293.56 
L 255.467649 293.56 
z
" clip-path="url(#p37a61ecd74)" style="fill: #1f77b4; fill-opacity: 0.5; stroke: #000000; stroke-width: 0.309765; stroke-linejoin: miter"/>
   </g>
   <g id="patch_63">
    <path d="M 258.565298 293.56 
L 261.662947 293.56 
L 261.662947 293.56 
L 258.565298 293.56 
z
" clip-path="url(#p37a61ecd74)" style="fill: #1f77b4; fill-opacity: 0.5; stroke: #000000; stroke-width: 0.309765; stroke-linejoin: miter"/>
   </g>
   <g id="patch_64">
    <path d="M 261.662947 293.56 
L 264.760596 293.56 
L 264.760596 293.56 
L 261.662947 293.56 
z
" clip-path="url(#p37a61ecd74)" style="fill: #1f77b4; fill-opacity: 0.5; stroke: #000000; stroke-width: 0.309765; stroke-linejoin: miter"/>
   </g>
   <g id="patch_65">
    <path d="M 264.760596 293.56 
L 267.858245 293.56 
L 267.858245 293.56 
L 264.760596 293.56 
z
" clip-path="url(#p37a61ecd74)" style="fill: #1f77b4; fill-opacity: 0.5; stroke: #000000; stroke-width: 0.309765; stroke-linejoin: miter"/>
   </g>
   <g id="patch_66">
    <path d="M 267.858245 293.56 
L 270.955893 293.56 
L 270.955893 293.56 
L 267.858245 293.56 
z
" clip-path="url(#p37a61ecd74)" style="fill: #1f77b4; fill-opacity: 0.5; stroke: #000000; stroke-width: 0.309765; stroke-linejoin: miter"/>
   </g>
   <g id="patch_67">
    <path d="M 270.955893 293.56 
L 274.053542 293.56 
L 274.053542 293.56 
L 270.955893 293.56 
z
" clip-path="url(#p37a61ecd74)" style="fill: #1f77b4; fill-opacity: 0.5; stroke: #000000; stroke-width: 0.309765; stroke-linejoin: miter"/>
   </g>
   <g id="patch_68">
    <path d="M 274.053542 293.56 
L 277.151191 293.56 
L 277.151191 293.56 
L 274.053542 293.56 
z
" clip-path="url(#p37a61ecd74)" style="fill: #1f77b4; fill-opacity: 0.5; stroke: #000000; stroke-width: 0.309765; stroke-linejoin: miter"/>
   </g>
   <g id="patch_69">
    <path d="M 277.151191 293.56 
L 280.24884 293.56 
L 280.24884 293.56 
L 277.151191 293.56 
z
" clip-path="url(#p37a61ecd74)" style="fill: #1f77b4; fill-opacity: 0.5; stroke: #000000; stroke-width: 0.309765; stroke-linejoin: miter"/>
   </g>
   <g id="patch_70">
    <path d="M 280.24884 293.56 
L 283.346489 293.56 
L 283.346489 293.56 
L 280.24884 293.56 
z
" clip-path="url(#p37a61ecd74)" style="fill: #1f77b4; fill-opacity: 0.5; stroke: #000000; stroke-width: 0.309765; stroke-linejoin: miter"/>
   </g>
   <g id="patch_71">
    <path d="M 283.346489 293.56 
L 286.444138 293.56 
L 286.444138 293.56 
L 283.346489 293.56 
z
" clip-path="url(#p37a61ecd74)" style="fill: #1f77b4; fill-opacity: 0.5; stroke: #000000; stroke-width: 0.309765; stroke-linejoin: miter"/>
   </g>
   <g id="patch_72">
    <path d="M 286.444138 293.56 
L 289.541787 293.56 
L 289.541787 293.56 
L 286.444138 293.56 
z
" clip-path="url(#p37a61ecd74)" style="fill: #1f77b4; fill-opacity: 0.5; stroke: #000000; stroke-width: 0.309765; stroke-linejoin: miter"/>
   </g>
   <g id="patch_73">
    <path d="M 289.541787 293.56 
L 292.639436 293.56 
L 292.639436 293.56 
L 289.541787 293.56 
z
" clip-path="url(#p37a61ecd74)" style="fill: #1f77b4; fill-opacity: 0.5; stroke: #000000; stroke-width: 0.309765; stroke-linejoin: miter"/>
   </g>
   <g id="patch_74">
    <path d="M 292.639436 293.56 
L 295.737085 293.56 
L 295.737085 293.56 
L 292.639436 293.56 
z
" clip-path="url(#p37a61ecd74)" style="fill: #1f77b4; fill-opacity: 0.5; stroke: #000000; stroke-width: 0.309765; stroke-linejoin: miter"/>
   </g>
   <g id="patch_75">
    <path d="M 295.737085 293.56 
L 298.834734 293.56 
L 298.834734 293.56 
L 295.737085 293.56 
z
" clip-path="url(#p37a61ecd74)" style="fill: #1f77b4; fill-opacity: 0.5; stroke: #000000; stroke-width: 0.309765; stroke-linejoin: miter"/>
   </g>
   <g id="patch_76">
    <path d="M 298.834734 293.56 
L 301.932382 293.56 
L 301.932382 293.56 
L 298.834734 293.56 
z
" clip-path="url(#p37a61ecd74)" style="fill: #1f77b4; fill-opacity: 0.5; stroke: #000000; stroke-width: 0.309765; stroke-linejoin: miter"/>
   </g>
   <g id="patch_77">
    <path d="M 301.932382 293.56 
L 305.030031 293.56 
L 305.030031 293.56 
L 301.932382 293.56 
z
" clip-path="url(#p37a61ecd74)" style="fill: #1f77b4; fill-opacity: 0.5; stroke: #000000; stroke-width: 0.309765; stroke-linejoin: miter"/>
   </g>
   <g id="patch_78">
    <path d="M 305.030031 293.56 
L 308.12768 293.56 
L 308.12768 293.56 
L 305.030031 293.56 
z
" clip-path="url(#p37a61ecd74)" style="fill: #1f77b4; fill-opacity: 0.5; stroke: #000000; stroke-width: 0.309765; stroke-linejoin: miter"/>
   </g>
   <g id="patch_79">
    <path d="M 308.12768 293.56 
L 311.225329 293.56 
L 311.225329 293.56 
L 308.12768 293.56 
z
" clip-path="url(#p37a61ecd74)" style="fill: #1f77b4; fill-opacity: 0.5; stroke: #000000; stroke-width: 0.309765; stroke-linejoin: miter"/>
   </g>
   <g id="patch_80">
    <path d="M 311.225329 293.56 
L 314.322978 293.56 
L 314.322978 293.56 
L 311.225329 293.56 
z
" clip-path="url(#p37a61ecd74)" style="fill: #1f77b4; fill-opacity: 0.5; stroke: #000000; stroke-width: 0.309765; stroke-linejoin: miter"/>
   </g>
   <g id="patch_81">
    <path d="M 314.322978 293.56 
L 317.420627 293.56 
L 317.420627 293.56 
L 314.322978 293.56 
z
" clip-path="url(#p37a61ecd74)" style="fill: #1f77b4; fill-opacity: 0.5; stroke: #000000; stroke-width: 0.309765; stroke-linejoin: miter"/>
   </g>
   <g id="patch_82">
    <path d="M 317.420627 293.56 
L 320.518276 293.56 
L 320.518276 293.56 
L 317.420627 293.56 
z
" clip-path="url(#p37a61ecd74)" style="fill: #1f77b4; fill-opacity: 0.5; stroke: #000000; stroke-width: 0.309765; stroke-linejoin: miter"/>
   </g>
   <g id="patch_83">
    <path d="M 320.518276 293.56 
L 323.615925 293.56 
L 323.615925 293.56 
L 320.518276 293.56 
z
" clip-path="url(#p37a61ecd74)" style="fill: #1f77b4; fill-opacity: 0.5; stroke: #000000; stroke-width: 0.309765; stroke-linejoin: miter"/>
   </g>
   <g id="patch_84">
    <path d="M 323.615925 293.56 
L 326.713574 293.56 
L 326.713574 293.56 
L 323.615925 293.56 
z
" clip-path="url(#p37a61ecd74)" style="fill: #1f77b4; fill-opacity: 0.5; stroke: #000000; stroke-width: 0.309765; stroke-linejoin: miter"/>
   </g>
   <g id="patch_85">
    <path d="M 326.713574 293.56 
L 329.811223 293.56 
L 329.811223 293.56 
L 326.713574 293.56 
z
" clip-path="url(#p37a61ecd74)" style="fill: #1f77b4; fill-opacity: 0.5; stroke: #000000; stroke-width: 0.309765; stroke-linejoin: miter"/>
   </g>
   <g id="patch_86">
    <path d="M 329.811223 293.56 
L 332.908871 293.56 
L 332.908871 293.56 
L 329.811223 293.56 
z
" clip-path="url(#p37a61ecd74)" style="fill: #1f77b4; fill-opacity: 0.5; stroke: #000000; stroke-width: 0.309765; stroke-linejoin: miter"/>
   </g>
   <g id="patch_87">
    <path d="M 332.908871 293.56 
L 336.00652 293.56 
L 336.00652 293.56 
L 332.908871 293.56 
z
" clip-path="url(#p37a61ecd74)" style="fill: #1f77b4; fill-opacity: 0.5; stroke: #000000; stroke-width: 0.309765; stroke-linejoin: miter"/>
   </g>
   <g id="patch_88">
    <path d="M 336.00652 293.56 
L 339.104169 293.56 
L 339.104169 293.56 
L 336.00652 293.56 
z
" clip-path="url(#p37a61ecd74)" style="fill: #1f77b4; fill-opacity: 0.5; stroke: #000000; stroke-width: 0.309765; stroke-linejoin: miter"/>
   </g>
   <g id="patch_89">
    <path d="M 339.104169 293.56 
L 342.201818 293.56 
L 342.201818 293.56 
L 339.104169 293.56 
z
" clip-path="url(#p37a61ecd74)" style="fill: #1f77b4; fill-opacity: 0.5; stroke: #000000; stroke-width: 0.309765; stroke-linejoin: miter"/>
   </g>
   <g id="patch_90">
    <path d="M 342.201818 293.56 
L 345.299467 293.56 
L 345.299467 293.56 
L 342.201818 293.56 
z
" clip-path="url(#p37a61ecd74)" style="fill: #1f77b4; fill-opacity: 0.5; stroke: #000000; stroke-width: 0.309765; stroke-linejoin: miter"/>
   </g>
   <g id="patch_91">
    <path d="M 345.299467 293.56 
L 348.397116 293.56 
L 348.397116 293.56 
L 345.299467 293.56 
z
" clip-path="url(#p37a61ecd74)" style="fill: #1f77b4; fill-opacity: 0.5; stroke: #000000; stroke-width: 0.309765; stroke-linejoin: miter"/>
   </g>
   <g id="patch_92">
    <path d="M 348.397116 293.56 
L 351.494765 293.56 
L 351.494765 293.56 
L 348.397116 293.56 
z
" clip-path="url(#p37a61ecd74)" style="fill: #1f77b4; fill-opacity: 0.5; stroke: #000000; stroke-width: 0.309765; stroke-linejoin: miter"/>
   </g>
   <g id="patch_93">
    <path d="M 351.494765 293.56 
L 354.592414 293.56 
L 354.592414 293.56 
L 351.494765 293.56 
z
" clip-path="url(#p37a61ecd74)" style="fill: #1f77b4; fill-opacity: 0.5; stroke: #000000; stroke-width: 0.309765; stroke-linejoin: miter"/>
   </g>
   <g id="patch_94">
    <path d="M 354.592414 293.56 
L 357.690063 293.56 
L 357.690063 293.56 
L 354.592414 293.56 
z
" clip-path="url(#p37a61ecd74)" style="fill: #1f77b4; fill-opacity: 0.5; stroke: #000000; stroke-width: 0.309765; stroke-linejoin: miter"/>
   </g>
   <g id="patch_95">
    <path d="M 357.690063 293.56 
L 360.787712 293.56 
L 360.787712 293.56 
L 357.690063 293.56 
z
" clip-path="url(#p37a61ecd74)" style="fill: #1f77b4; fill-opacity: 0.5; stroke: #000000; stroke-width: 0.309765; stroke-linejoin: miter"/>
   </g>
   <g id="patch_96">
    <path d="M 360.787712 293.56 
L 363.885361 293.56 
L 363.885361 293.56 
L 360.787712 293.56 
z
" clip-path="url(#p37a61ecd74)" style="fill: #1f77b4; fill-opacity: 0.5; stroke: #000000; stroke-width: 0.309765; stroke-linejoin: miter"/>
   </g>
   <g id="patch_97">
    <path d="M 363.885361 293.56 
L 366.983009 293.56 
L 366.983009 293.56 
L 363.885361 293.56 
z
" clip-path="url(#p37a61ecd74)" style="fill: #1f77b4; fill-opacity: 0.5; stroke: #000000; stroke-width: 0.309765; stroke-linejoin: miter"/>
   </g>
   <g id="patch_98">
    <path d="M 366.983009 293.56 
L 370.080658 293.56 
L 370.080658 293.56 
L 366.983009 293.56 
z
" clip-path="url(#p37a61ecd74)" style="fill: #1f77b4; fill-opacity: 0.5; stroke: #000000; stroke-width: 0.309765; stroke-linejoin: miter"/>
   </g>
   <g id="patch_99">
    <path d="M 370.080658 293.56 
L 373.178307 293.56 
L 373.178307 293.56 
L 370.080658 293.56 
z
" clip-path="url(#p37a61ecd74)" style="fill: #1f77b4; fill-opacity: 0.5; stroke: #000000; stroke-width: 0.309765; stroke-linejoin: miter"/>
   </g>
   <g id="patch_100">
    <path d="M 373.178307 293.56 
L 376.275956 293.56 
L 376.275956 293.56 
L 373.178307 293.56 
z
" clip-path="url(#p37a61ecd74)" style="fill: #1f77b4; fill-opacity: 0.5; stroke: #000000; stroke-width: 0.309765; stroke-linejoin: miter"/>
   </g>
   <g id="patch_101">
    <path d="M 376.275956 293.56 
L 379.373605 293.56 
L 379.373605 293.56 
L 376.275956 293.56 
z
" clip-path="url(#p37a61ecd74)" style="fill: #1f77b4; fill-opacity: 0.5; stroke: #000000; stroke-width: 0.309765; stroke-linejoin: miter"/>
   </g>
   <g id="patch_102">
    <path d="M 379.373605 293.56 
L 382.471254 293.56 
L 382.471254 293.56 
L 379.373605 293.56 
z
" clip-path="url(#p37a61ecd74)" style="fill: #1f77b4; fill-opacity: 0.5; stroke: #000000; stroke-width: 0.309765; stroke-linejoin: miter"/>
   </g>
   <g id="patch_103">
    <path d="M 382.471254 293.56 
L 385.568903 293.56 
L 385.568903 293.56 
L 382.471254 293.56 
z
" clip-path="url(#p37a61ecd74)" style="fill: #1f77b4; fill-opacity: 0.5; stroke: #000000; stroke-width: 0.309765; stroke-linejoin: miter"/>
   </g>
   <g id="patch_104">
    <path d="M 385.568903 293.56 
L 388.666552 293.56 
L 388.666552 293.56 
L 385.568903 293.56 
z
" clip-path="url(#p37a61ecd74)" style="fill: #1f77b4; fill-opacity: 0.5; stroke: #000000; stroke-width: 0.309765; stroke-linejoin: miter"/>
   </g>
   <g id="patch_105">
    <path d="M 388.666552 293.56 
L 391.764201 293.56 
L 391.764201 293.56 
L 388.666552 293.56 
z
" clip-path="url(#p37a61ecd74)" style="fill: #1f77b4; fill-opacity: 0.5; stroke: #000000; stroke-width: 0.309765; stroke-linejoin: miter"/>
   </g>
   <g id="patch_106">
    <path d="M 391.764201 293.56 
L 394.86185 293.56 
L 394.86185 293.56 
L 391.764201 293.56 
z
" clip-path="url(#p37a61ecd74)" style="fill: #1f77b4; fill-opacity: 0.5; stroke: #000000; stroke-width: 0.309765; stroke-linejoin: miter"/>
   </g>
   <g id="patch_107">
    <path d="M 394.86185 293.56 
L 397.959498 293.56 
L 397.959498 293.56 
L 394.86185 293.56 
z
" clip-path="url(#p37a61ecd74)" style="fill: #1f77b4; fill-opacity: 0.5; stroke: #000000; stroke-width: 0.309765; stroke-linejoin: miter"/>
   </g>
   <g id="patch_108">
    <path d="M 397.959498 293.56 
L 401.057147 293.56 
L 401.057147 293.56 
L 397.959498 293.56 
z
" clip-path="url(#p37a61ecd74)" style="fill: #1f77b4; fill-opacity: 0.5; stroke: #000000; stroke-width: 0.309765; stroke-linejoin: miter"/>
   </g>
   <g id="patch_109">
    <path d="M 401.057147 293.56 
L 404.154796 293.56 
L 404.154796 293.56 
L 401.057147 293.56 
z
" clip-path="url(#p37a61ecd74)" style="fill: #1f77b4; fill-opacity: 0.5; stroke: #000000; stroke-width: 0.309765; stroke-linejoin: miter"/>
   </g>
   <g id="patch_110">
    <path d="M 404.154796 293.56 
L 407.252445 293.56 
L 407.252445 293.56 
L 404.154796 293.56 
z
" clip-path="url(#p37a61ecd74)" style="fill: #1f77b4; fill-opacity: 0.5; stroke: #000000; stroke-width: 0.309765; stroke-linejoin: miter"/>
   </g>
   <g id="patch_111">
    <path d="M 407.252445 293.56 
L 410.350094 293.56 
L 410.350094 293.56 
L 407.252445 293.56 
z
" clip-path="url(#p37a61ecd74)" style="fill: #1f77b4; fill-opacity: 0.5; stroke: #000000; stroke-width: 0.309765; stroke-linejoin: miter"/>
   </g>
   <g id="patch_112">
    <path d="M 410.350094 293.56 
L 413.447743 293.56 
L 413.447743 293.56 
L 410.350094 293.56 
z
" clip-path="url(#p37a61ecd74)" style="fill: #1f77b4; fill-opacity: 0.5; stroke: #000000; stroke-width: 0.309765; stroke-linejoin: miter"/>
   </g>
   <g id="patch_113">
    <path d="M 413.447743 293.56 
L 416.545392 293.56 
L 416.545392 293.56 
L 413.447743 293.56 
z
" clip-path="url(#p37a61ecd74)" style="fill: #1f77b4; fill-opacity: 0.5; stroke: #000000; stroke-width: 0.309765; stroke-linejoin: miter"/>
   </g>
   <g id="patch_114">
    <path d="M 416.545392 293.56 
L 419.643041 293.56 
L 419.643041 293.56 
L 416.545392 293.56 
z
" clip-path="url(#p37a61ecd74)" style="fill: #1f77b4; fill-opacity: 0.5; stroke: #000000; stroke-width: 0.309765; stroke-linejoin: miter"/>
   </g>
   <g id="patch_115">
    <path d="M 419.643041 293.56 
L 422.74069 293.56 
L 422.74069 293.56 
L 419.643041 293.56 
z
" clip-path="url(#p37a61ecd74)" style="fill: #1f77b4; fill-opacity: 0.5; stroke: #000000; stroke-width: 0.309765; stroke-linejoin: miter"/>
   </g>
   <g id="patch_116">
    <path d="M 422.74069 293.56 
L 425.838339 293.56 
L 425.838339 293.56 
L 422.74069 293.56 
z
" clip-path="url(#p37a61ecd74)" style="fill: #1f77b4; fill-opacity: 0.5; stroke: #000000; stroke-width: 0.309765; stroke-linejoin: miter"/>
   </g>
   <g id="patch_117">
    <path d="M 425.838339 293.56 
L 428.935987 293.56 
L 428.935987 293.56 
L 425.838339 293.56 
z
" clip-path="url(#p37a61ecd74)" style="fill: #1f77b4; fill-opacity: 0.5; stroke: #000000; stroke-width: 0.309765; stroke-linejoin: miter"/>
   </g>
   <g id="patch_118">
    <path d="M 428.935987 293.56 
L 432.033636 293.56 
L 432.033636 284.801448 
L 428.935987 284.801448 
z
" clip-path="url(#p37a61ecd74)" style="fill: #1f77b4; fill-opacity: 0.5; stroke: #000000; stroke-width: 0.309765; stroke-linejoin: miter"/>
   </g>
   <g id="matplotlib.axis_1">
    <g id="xtick_1">
     <g id="line2d_1">
      <defs>
       <path id="m61471a349c" d="M 0 0 
L 0 3.5 
" style="stroke: #000000; stroke-width: 0.8"/>
      </defs>
      <g>
       <use xlink:href="#m61471a349c" x="72.706364" y="293.56" style="stroke: #000000; stroke-width: 0.8"/>
      </g>
     </g>
     <g id="text_1">
      <!-- 0 -->
      <g transform="translate(69.525114 308.158437) scale(0.1 -0.1)">
       <defs>
        <path id="DejaVuSans-30" d="M 2034 4250 
Q 1547 4250 1301 3770 
Q 1056 3291 1056 2328 
Q 1056 1369 1301 889 
Q 1547 409 2034 409 
Q 2525 409 2770 889 
Q 3016 1369 3016 2328 
Q 3016 3291 2770 3770 
Q 2525 4250 2034 4250 
z
M 2034 4750 
Q 2819 4750 3233 4129 
Q 3647 3509 3647 2328 
Q 3647 1150 3233 529 
Q 2819 -91 2034 -91 
Q 1250 -91 836 529 
Q 422 1150 422 2328 
Q 422 3509 836 4129 
Q 1250 4750 2034 4750 
z
" transform="scale(0.015625)"/>
       </defs>
       <use xlink:href="#DejaVuSans-30"/>
      </g>
     </g>
    </g>
    <g id="xtick_2">
     <g id="line2d_2">
      <g>
       <use xlink:href="#m61471a349c" x="121.49486" y="293.56" style="stroke: #000000; stroke-width: 0.8"/>
      </g>
     </g>
     <g id="text_2">
      <!-- 200 -->
      <g transform="translate(111.95111 308.158437) scale(0.1 -0.1)">
       <defs>
        <path id="DejaVuSans-32" d="M 1228 531 
L 3431 531 
L 3431 0 
L 469 0 
L 469 531 
Q 828 903 1448 1529 
Q 2069 2156 2228 2338 
Q 2531 2678 2651 2914 
Q 2772 3150 2772 3378 
Q 2772 3750 2511 3984 
Q 2250 4219 1831 4219 
Q 1534 4219 1204 4116 
Q 875 4013 500 3803 
L 500 4441 
Q 881 4594 1212 4672 
Q 1544 4750 1819 4750 
Q 2544 4750 2975 4387 
Q 3406 4025 3406 3419 
Q 3406 3131 3298 2873 
Q 3191 2616 2906 2266 
Q 2828 2175 2409 1742 
Q 1991 1309 1228 531 
z
" transform="scale(0.015625)"/>
       </defs>
       <use xlink:href="#DejaVuSans-32"/>
       <use xlink:href="#DejaVuSans-30" x="63.623047"/>
       <use xlink:href="#DejaVuSans-30" x="127.246094"/>
      </g>
     </g>
    </g>
    <g id="xtick_3">
     <g id="line2d_3">
      <g>
       <use xlink:href="#m61471a349c" x="170.283356" y="293.56" style="stroke: #000000; stroke-width: 0.8"/>
      </g>
     </g>
     <g id="text_3">
      <!-- 400 -->
      <g transform="translate(160.739606 308.158437) scale(0.1 -0.1)">
       <defs>
        <path id="DejaVuSans-34" d="M 2419 4116 
L 825 1625 
L 2419 1625 
L 2419 4116 
z
M 2253 4666 
L 3047 4666 
L 3047 1625 
L 3713 1625 
L 3713 1100 
L 3047 1100 
L 3047 0 
L 2419 0 
L 2419 1100 
L 313 1100 
L 313 1709 
L 2253 4666 
z
" transform="scale(0.015625)"/>
       </defs>
       <use xlink:href="#DejaVuSans-34"/>
       <use xlink:href="#DejaVuSans-30" x="63.623047"/>
       <use xlink:href="#DejaVuSans-30" x="127.246094"/>
      </g>
     </g>
    </g>
    <g id="xtick_4">
     <g id="line2d_4">
      <g>
       <use xlink:href="#m61471a349c" x="219.071852" y="293.56" style="stroke: #000000; stroke-width: 0.8"/>
      </g>
     </g>
     <g id="text_4">
      <!-- 600 -->
      <g transform="translate(209.528102 308.158437) scale(0.1 -0.1)">
       <defs>
        <path id="DejaVuSans-36" d="M 2113 2584 
Q 1688 2584 1439 2293 
Q 1191 2003 1191 1497 
Q 1191 994 1439 701 
Q 1688 409 2113 409 
Q 2538 409 2786 701 
Q 3034 994 3034 1497 
Q 3034 2003 2786 2293 
Q 2538 2584 2113 2584 
z
M 3366 4563 
L 3366 3988 
Q 3128 4100 2886 4159 
Q 2644 4219 2406 4219 
Q 1781 4219 1451 3797 
Q 1122 3375 1075 2522 
Q 1259 2794 1537 2939 
Q 1816 3084 2150 3084 
Q 2853 3084 3261 2657 
Q 3669 2231 3669 1497 
Q 3669 778 3244 343 
Q 2819 -91 2113 -91 
Q 1303 -91 875 529 
Q 447 1150 447 2328 
Q 447 3434 972 4092 
Q 1497 4750 2381 4750 
Q 2619 4750 2861 4703 
Q 3103 4656 3366 4563 
z
" transform="scale(0.015625)"/>
       </defs>
       <use xlink:href="#DejaVuSans-36"/>
       <use xlink:href="#DejaVuSans-30" x="63.623047"/>
       <use xlink:href="#DejaVuSans-30" x="127.246094"/>
      </g>
     </g>
    </g>
    <g id="xtick_5">
     <g id="line2d_5">
      <g>
       <use xlink:href="#m61471a349c" x="267.860347" y="293.56" style="stroke: #000000; stroke-width: 0.8"/>
      </g>
     </g>
     <g id="text_5">
      <!-- 800 -->
      <g transform="translate(258.316597 308.158437) scale(0.1 -0.1)">
       <defs>
        <path id="DejaVuSans-38" d="M 2034 2216 
Q 1584 2216 1326 1975 
Q 1069 1734 1069 1313 
Q 1069 891 1326 650 
Q 1584 409 2034 409 
Q 2484 409 2743 651 
Q 3003 894 3003 1313 
Q 3003 1734 2745 1975 
Q 2488 2216 2034 2216 
z
M 1403 2484 
Q 997 2584 770 2862 
Q 544 3141 544 3541 
Q 544 4100 942 4425 
Q 1341 4750 2034 4750 
Q 2731 4750 3128 4425 
Q 3525 4100 3525 3541 
Q 3525 3141 3298 2862 
Q 3072 2584 2669 2484 
Q 3125 2378 3379 2068 
Q 3634 1759 3634 1313 
Q 3634 634 3220 271 
Q 2806 -91 2034 -91 
Q 1263 -91 848 271 
Q 434 634 434 1313 
Q 434 1759 690 2068 
Q 947 2378 1403 2484 
z
M 1172 3481 
Q 1172 3119 1398 2916 
Q 1625 2713 2034 2713 
Q 2441 2713 2670 2916 
Q 2900 3119 2900 3481 
Q 2900 3844 2670 4047 
Q 2441 4250 2034 4250 
Q 1625 4250 1398 4047 
Q 1172 3844 1172 3481 
z
" transform="scale(0.015625)"/>
       </defs>
       <use xlink:href="#DejaVuSans-38"/>
       <use xlink:href="#DejaVuSans-30" x="63.623047"/>
       <use xlink:href="#DejaVuSans-30" x="127.246094"/>
      </g>
     </g>
    </g>
    <g id="xtick_6">
     <g id="line2d_6">
      <g>
       <use xlink:href="#m61471a349c" x="316.648843" y="293.56" style="stroke: #000000; stroke-width: 0.8"/>
      </g>
     </g>
     <g id="text_6">
      <!-- 1000 -->
      <g transform="translate(303.923843 308.158437) scale(0.1 -0.1)">
       <defs>
        <path id="DejaVuSans-31" d="M 794 531 
L 1825 531 
L 1825 4091 
L 703 3866 
L 703 4441 
L 1819 4666 
L 2450 4666 
L 2450 531 
L 3481 531 
L 3481 0 
L 794 0 
L 794 531 
z
" transform="scale(0.015625)"/>
       </defs>
       <use xlink:href="#DejaVuSans-31"/>
       <use xlink:href="#DejaVuSans-30" x="63.623047"/>
       <use xlink:href="#DejaVuSans-30" x="127.246094"/>
       <use xlink:href="#DejaVuSans-30" x="190.869141"/>
      </g>
     </g>
    </g>
    <g id="xtick_7">
     <g id="line2d_7">
      <g>
       <use xlink:href="#m61471a349c" x="365.437339" y="293.56" style="stroke: #000000; stroke-width: 0.8"/>
      </g>
     </g>
     <g id="text_7">
      <!-- 1200 -->
      <g transform="translate(352.712339 308.158437) scale(0.1 -0.1)">
       <use xlink:href="#DejaVuSans-31"/>
       <use xlink:href="#DejaVuSans-32" x="63.623047"/>
       <use xlink:href="#DejaVuSans-30" x="127.246094"/>
       <use xlink:href="#DejaVuSans-30" x="190.869141"/>
      </g>
     </g>
    </g>
    <g id="xtick_8">
     <g id="line2d_8">
      <g>
       <use xlink:href="#m61471a349c" x="414.225835" y="293.56" style="stroke: #000000; stroke-width: 0.8"/>
      </g>
     </g>
     <g id="text_8">
      <!-- 1400 -->
      <g transform="translate(401.500835 308.158437) scale(0.1 -0.1)">
       <use xlink:href="#DejaVuSans-31"/>
       <use xlink:href="#DejaVuSans-34" x="63.623047"/>
       <use xlink:href="#DejaVuSans-30" x="127.246094"/>
       <use xlink:href="#DejaVuSans-30" x="190.869141"/>
      </g>
     </g>
    </g>
    <g id="text_9">
     <!-- Orphan genes count per Genome -->
     <g transform="translate(85.245 329.435) scale(0.2 -0.2)">
      <defs>
       <path id="DejaVuSans-4f" d="M 2522 4238 
Q 1834 4238 1429 3725 
Q 1025 3213 1025 2328 
Q 1025 1447 1429 934 
Q 1834 422 2522 422 
Q 3209 422 3611 934 
Q 4013 1447 4013 2328 
Q 4013 3213 3611 3725 
Q 3209 4238 2522 4238 
z
M 2522 4750 
Q 3503 4750 4090 4092 
Q 4678 3434 4678 2328 
Q 4678 1225 4090 567 
Q 3503 -91 2522 -91 
Q 1538 -91 948 565 
Q 359 1222 359 2328 
Q 359 3434 948 4092 
Q 1538 4750 2522 4750 
z
" transform="scale(0.015625)"/>
       <path id="DejaVuSans-72" d="M 2631 2963 
Q 2534 3019 2420 3045 
Q 2306 3072 2169 3072 
Q 1681 3072 1420 2755 
Q 1159 2438 1159 1844 
L 1159 0 
L 581 0 
L 581 3500 
L 1159 3500 
L 1159 2956 
Q 1341 3275 1631 3429 
Q 1922 3584 2338 3584 
Q 2397 3584 2469 3576 
Q 2541 3569 2628 3553 
L 2631 2963 
z
" transform="scale(0.015625)"/>
       <path id="DejaVuSans-70" d="M 1159 525 
L 1159 -1331 
L 581 -1331 
L 581 3500 
L 1159 3500 
L 1159 2969 
Q 1341 3281 1617 3432 
Q 1894 3584 2278 3584 
Q 2916 3584 3314 3078 
Q 3713 2572 3713 1747 
Q 3713 922 3314 415 
Q 2916 -91 2278 -91 
Q 1894 -91 1617 61 
Q 1341 213 1159 525 
z
M 3116 1747 
Q 3116 2381 2855 2742 
Q 2594 3103 2138 3103 
Q 1681 3103 1420 2742 
Q 1159 2381 1159 1747 
Q 1159 1113 1420 752 
Q 1681 391 2138 391 
Q 2594 391 2855 752 
Q 3116 1113 3116 1747 
z
" transform="scale(0.015625)"/>
       <path id="DejaVuSans-68" d="M 3513 2113 
L 3513 0 
L 2938 0 
L 2938 2094 
Q 2938 2591 2744 2837 
Q 2550 3084 2163 3084 
Q 1697 3084 1428 2787 
Q 1159 2491 1159 1978 
L 1159 0 
L 581 0 
L 581 4863 
L 1159 4863 
L 1159 2956 
Q 1366 3272 1645 3428 
Q 1925 3584 2291 3584 
Q 2894 3584 3203 3211 
Q 3513 2838 3513 2113 
z
" transform="scale(0.015625)"/>
       <path id="DejaVuSans-61" d="M 2194 1759 
Q 1497 1759 1228 1600 
Q 959 1441 959 1056 
Q 959 750 1161 570 
Q 1363 391 1709 391 
Q 2188 391 2477 730 
Q 2766 1069 2766 1631 
L 2766 1759 
L 2194 1759 
z
M 3341 1997 
L 3341 0 
L 2766 0 
L 2766 531 
Q 2569 213 2275 61 
Q 1981 -91 1556 -91 
Q 1019 -91 701 211 
Q 384 513 384 1019 
Q 384 1609 779 1909 
Q 1175 2209 1959 2209 
L 2766 2209 
L 2766 2266 
Q 2766 2663 2505 2880 
Q 2244 3097 1772 3097 
Q 1472 3097 1187 3025 
Q 903 2953 641 2809 
L 641 3341 
Q 956 3463 1253 3523 
Q 1550 3584 1831 3584 
Q 2591 3584 2966 3190 
Q 3341 2797 3341 1997 
z
" transform="scale(0.015625)"/>
       <path id="DejaVuSans-6e" d="M 3513 2113 
L 3513 0 
L 2938 0 
L 2938 2094 
Q 2938 2591 2744 2837 
Q 2550 3084 2163 3084 
Q 1697 3084 1428 2787 
Q 1159 2491 1159 1978 
L 1159 0 
L 581 0 
L 581 3500 
L 1159 3500 
L 1159 2956 
Q 1366 3272 1645 3428 
Q 1925 3584 2291 3584 
Q 2894 3584 3203 3211 
Q 3513 2838 3513 2113 
z
" transform="scale(0.015625)"/>
       <path id="DejaVuSans-20" transform="scale(0.015625)"/>
       <path id="DejaVuSans-67" d="M 2906 1791 
Q 2906 2416 2648 2759 
Q 2391 3103 1925 3103 
Q 1463 3103 1205 2759 
Q 947 2416 947 1791 
Q 947 1169 1205 825 
Q 1463 481 1925 481 
Q 2391 481 2648 825 
Q 2906 1169 2906 1791 
z
M 3481 434 
Q 3481 -459 3084 -895 
Q 2688 -1331 1869 -1331 
Q 1566 -1331 1297 -1286 
Q 1028 -1241 775 -1147 
L 775 -588 
Q 1028 -725 1275 -790 
Q 1522 -856 1778 -856 
Q 2344 -856 2625 -561 
Q 2906 -266 2906 331 
L 2906 616 
Q 2728 306 2450 153 
Q 2172 0 1784 0 
Q 1141 0 747 490 
Q 353 981 353 1791 
Q 353 2603 747 3093 
Q 1141 3584 1784 3584 
Q 2172 3584 2450 3431 
Q 2728 3278 2906 2969 
L 2906 3500 
L 3481 3500 
L 3481 434 
z
" transform="scale(0.015625)"/>
       <path id="DejaVuSans-65" d="M 3597 1894 
L 3597 1613 
L 953 1613 
Q 991 1019 1311 708 
Q 1631 397 2203 397 
Q 2534 397 2845 478 
Q 3156 559 3463 722 
L 3463 178 
Q 3153 47 2828 -22 
Q 2503 -91 2169 -91 
Q 1331 -91 842 396 
Q 353 884 353 1716 
Q 353 2575 817 3079 
Q 1281 3584 2069 3584 
Q 2775 3584 3186 3129 
Q 3597 2675 3597 1894 
z
M 3022 2063 
Q 3016 2534 2758 2815 
Q 2500 3097 2075 3097 
Q 1594 3097 1305 2825 
Q 1016 2553 972 2059 
L 3022 2063 
z
" transform="scale(0.015625)"/>
       <path id="DejaVuSans-73" d="M 2834 3397 
L 2834 2853 
Q 2591 2978 2328 3040 
Q 2066 3103 1784 3103 
Q 1356 3103 1142 2972 
Q 928 2841 928 2578 
Q 928 2378 1081 2264 
Q 1234 2150 1697 2047 
L 1894 2003 
Q 2506 1872 2764 1633 
Q 3022 1394 3022 966 
Q 3022 478 2636 193 
Q 2250 -91 1575 -91 
Q 1294 -91 989 -36 
Q 684 19 347 128 
L 347 722 
Q 666 556 975 473 
Q 1284 391 1588 391 
Q 1994 391 2212 530 
Q 2431 669 2431 922 
Q 2431 1156 2273 1281 
Q 2116 1406 1581 1522 
L 1381 1569 
Q 847 1681 609 1914 
Q 372 2147 372 2553 
Q 372 3047 722 3315 
Q 1072 3584 1716 3584 
Q 2034 3584 2315 3537 
Q 2597 3491 2834 3397 
z
" transform="scale(0.015625)"/>
       <path id="DejaVuSans-63" d="M 3122 3366 
L 3122 2828 
Q 2878 2963 2633 3030 
Q 2388 3097 2138 3097 
Q 1578 3097 1268 2742 
Q 959 2388 959 1747 
Q 959 1106 1268 751 
Q 1578 397 2138 397 
Q 2388 397 2633 464 
Q 2878 531 3122 666 
L 3122 134 
Q 2881 22 2623 -34 
Q 2366 -91 2075 -91 
Q 1284 -91 818 406 
Q 353 903 353 1747 
Q 353 2603 823 3093 
Q 1294 3584 2113 3584 
Q 2378 3584 2631 3529 
Q 2884 3475 3122 3366 
z
" transform="scale(0.015625)"/>
       <path id="DejaVuSans-6f" d="M 1959 3097 
Q 1497 3097 1228 2736 
Q 959 2375 959 1747 
Q 959 1119 1226 758 
Q 1494 397 1959 397 
Q 2419 397 2687 759 
Q 2956 1122 2956 1747 
Q 2956 2369 2687 2733 
Q 2419 3097 1959 3097 
z
M 1959 3584 
Q 2709 3584 3137 3096 
Q 3566 2609 3566 1747 
Q 3566 888 3137 398 
Q 2709 -91 1959 -91 
Q 1206 -91 779 398 
Q 353 888 353 1747 
Q 353 2609 779 3096 
Q 1206 3584 1959 3584 
z
" transform="scale(0.015625)"/>
       <path id="DejaVuSans-75" d="M 544 1381 
L 544 3500 
L 1119 3500 
L 1119 1403 
Q 1119 906 1312 657 
Q 1506 409 1894 409 
Q 2359 409 2629 706 
Q 2900 1003 2900 1516 
L 2900 3500 
L 3475 3500 
L 3475 0 
L 2900 0 
L 2900 538 
Q 2691 219 2414 64 
Q 2138 -91 1772 -91 
Q 1169 -91 856 284 
Q 544 659 544 1381 
z
M 1991 3584 
L 1991 3584 
z
" transform="scale(0.015625)"/>
       <path id="DejaVuSans-74" d="M 1172 4494 
L 1172 3500 
L 2356 3500 
L 2356 3053 
L 1172 3053 
L 1172 1153 
Q 1172 725 1289 603 
Q 1406 481 1766 481 
L 2356 481 
L 2356 0 
L 1766 0 
Q 1100 0 847 248 
Q 594 497 594 1153 
L 594 3053 
L 172 3053 
L 172 3500 
L 594 3500 
L 594 4494 
L 1172 4494 
z
" transform="scale(0.015625)"/>
       <path id="DejaVuSans-47" d="M 3809 666 
L 3809 1919 
L 2778 1919 
L 2778 2438 
L 4434 2438 
L 4434 434 
Q 4069 175 3628 42 
Q 3188 -91 2688 -91 
Q 1594 -91 976 548 
Q 359 1188 359 2328 
Q 359 3472 976 4111 
Q 1594 4750 2688 4750 
Q 3144 4750 3555 4637 
Q 3966 4525 4313 4306 
L 4313 3634 
Q 3963 3931 3569 4081 
Q 3175 4231 2741 4231 
Q 1884 4231 1454 3753 
Q 1025 3275 1025 2328 
Q 1025 1384 1454 906 
Q 1884 428 2741 428 
Q 3075 428 3337 486 
Q 3600 544 3809 666 
z
" transform="scale(0.015625)"/>
       <path id="DejaVuSans-6d" d="M 3328 2828 
Q 3544 3216 3844 3400 
Q 4144 3584 4550 3584 
Q 5097 3584 5394 3201 
Q 5691 2819 5691 2113 
L 5691 0 
L 5113 0 
L 5113 2094 
Q 5113 2597 4934 2840 
Q 4756 3084 4391 3084 
Q 3944 3084 3684 2787 
Q 3425 2491 3425 1978 
L 3425 0 
L 2847 0 
L 2847 2094 
Q 2847 2600 2669 2842 
Q 2491 3084 2119 3084 
Q 1678 3084 1418 2786 
Q 1159 2488 1159 1978 
L 1159 0 
L 581 0 
L 581 3500 
L 1159 3500 
L 1159 2956 
Q 1356 3278 1631 3431 
Q 1906 3584 2284 3584 
Q 2666 3584 2933 3390 
Q 3200 3197 3328 2828 
z
" transform="scale(0.015625)"/>
      </defs>
      <use xlink:href="#DejaVuSans-4f"/>
      <use xlink:href="#DejaVuSans-72" x="78.710938"/>
      <use xlink:href="#DejaVuSans-70" x="119.824219"/>
      <use xlink:href="#DejaVuSans-68" x="183.300781"/>
      <use xlink:href="#DejaVuSans-61" x="246.679688"/>
      <use xlink:href="#DejaVuSans-6e" x="307.958984"/>
      <use xlink:href="#DejaVuSans-20" x="371.337891"/>
      <use xlink:href="#DejaVuSans-67" x="403.125"/>
      <use xlink:href="#DejaVuSans-65" x="466.601562"/>
      <use xlink:href="#DejaVuSans-6e" x="528.125"/>
      <use xlink:href="#DejaVuSans-65" x="591.503906"/>
      <use xlink:href="#DejaVuSans-73" x="653.027344"/>
      <use xlink:href="#DejaVuSans-20" x="705.126953"/>
      <use xlink:href="#DejaVuSans-63" x="736.914062"/>
      <use xlink:href="#DejaVuSans-6f" x="791.894531"/>
      <use xlink:href="#DejaVuSans-75" x="853.076172"/>
      <use xlink:href="#DejaVuSans-6e" x="916.455078"/>
      <use xlink:href="#DejaVuSans-74" x="979.833984"/>
      <use xlink:href="#DejaVuSans-20" x="1019.042969"/>
      <use xlink:href="#DejaVuSans-70" x="1050.830078"/>
      <use xlink:href="#DejaVuSans-65" x="1114.306641"/>
      <use xlink:href="#DejaVuSans-72" x="1175.830078"/>
      <use xlink:href="#DejaVuSans-20" x="1216.943359"/>
      <use xlink:href="#DejaVuSans-47" x="1248.730469"/>
      <use xlink:href="#DejaVuSans-65" x="1326.220703"/>
      <use xlink:href="#DejaVuSans-6e" x="1387.744141"/>
      <use xlink:href="#DejaVuSans-6f" x="1451.123047"/>
      <use xlink:href="#DejaVuSans-6d" x="1512.304688"/>
      <use xlink:href="#DejaVuSans-65" x="1609.716797"/>
     </g>
    </g>
   </g>
   <g id="matplotlib.axis_2">
    <g id="ytick_1">
     <g id="line2d_9">
      <defs>
       <path id="m1de6dbef35" d="M 0 0 
L -3.5 0 
" style="stroke: #000000; stroke-width: 0.8"/>
      </defs>
      <g>
       <use xlink:href="#m1de6dbef35" x="54.74" y="293.56" style="stroke: #000000; stroke-width: 0.8"/>
      </g>
     </g>
     <g id="text_10">
      <!-- 0 -->
      <g transform="translate(41.3775 297.359219) scale(0.1 -0.1)">
       <use xlink:href="#DejaVuSans-30"/>
      </g>
     </g>
    </g>
    <g id="ytick_2">
     <g id="line2d_10">
      <g>
       <use xlink:href="#m1de6dbef35" x="54.74" y="267.284343" style="stroke: #000000; stroke-width: 0.8"/>
      </g>
     </g>
     <g id="text_11">
      <!-- 3 -->
      <g transform="translate(41.3775 271.083562) scale(0.1 -0.1)">
       <defs>
        <path id="DejaVuSans-33" d="M 2597 2516 
Q 3050 2419 3304 2112 
Q 3559 1806 3559 1356 
Q 3559 666 3084 287 
Q 2609 -91 1734 -91 
Q 1441 -91 1130 -33 
Q 819 25 488 141 
L 488 750 
Q 750 597 1062 519 
Q 1375 441 1716 441 
Q 2309 441 2620 675 
Q 2931 909 2931 1356 
Q 2931 1769 2642 2001 
Q 2353 2234 1838 2234 
L 1294 2234 
L 1294 2753 
L 1863 2753 
Q 2328 2753 2575 2939 
Q 2822 3125 2822 3475 
Q 2822 3834 2567 4026 
Q 2313 4219 1838 4219 
Q 1578 4219 1281 4162 
Q 984 4106 628 3988 
L 628 4550 
Q 988 4650 1302 4700 
Q 1616 4750 1894 4750 
Q 2613 4750 3031 4423 
Q 3450 4097 3450 3541 
Q 3450 3153 3228 2886 
Q 3006 2619 2597 2516 
z
" transform="scale(0.015625)"/>
       </defs>
       <use xlink:href="#DejaVuSans-33"/>
      </g>
     </g>
    </g>
    <g id="ytick_3">
     <g id="line2d_11">
      <g>
       <use xlink:href="#m1de6dbef35" x="54.74" y="241.008686" style="stroke: #000000; stroke-width: 0.8"/>
      </g>
     </g>
     <g id="text_12">
      <!-- 6 -->
      <g transform="translate(41.3775 244.807904) scale(0.1 -0.1)">
       <use xlink:href="#DejaVuSans-36"/>
      </g>
     </g>
    </g>
    <g id="ytick_4">
     <g id="line2d_12">
      <g>
       <use xlink:href="#m1de6dbef35" x="54.74" y="214.733029" style="stroke: #000000; stroke-width: 0.8"/>
      </g>
     </g>
     <g id="text_13">
      <!-- 9 -->
      <g transform="translate(41.3775 218.532247) scale(0.1 -0.1)">
       <defs>
        <path id="DejaVuSans-39" d="M 703 97 
L 703 672 
Q 941 559 1184 500 
Q 1428 441 1663 441 
Q 2288 441 2617 861 
Q 2947 1281 2994 2138 
Q 2813 1869 2534 1725 
Q 2256 1581 1919 1581 
Q 1219 1581 811 2004 
Q 403 2428 403 3163 
Q 403 3881 828 4315 
Q 1253 4750 1959 4750 
Q 2769 4750 3195 4129 
Q 3622 3509 3622 2328 
Q 3622 1225 3098 567 
Q 2575 -91 1691 -91 
Q 1453 -91 1209 -44 
Q 966 3 703 97 
z
M 1959 2075 
Q 2384 2075 2632 2365 
Q 2881 2656 2881 3163 
Q 2881 3666 2632 3958 
Q 2384 4250 1959 4250 
Q 1534 4250 1286 3958 
Q 1038 3666 1038 3163 
Q 1038 2656 1286 2365 
Q 1534 2075 1959 2075 
z
" transform="scale(0.015625)"/>
       </defs>
       <use xlink:href="#DejaVuSans-39"/>
      </g>
     </g>
    </g>
    <g id="ytick_5">
     <g id="line2d_13">
      <g>
       <use xlink:href="#m1de6dbef35" x="54.74" y="188.457371" style="stroke: #000000; stroke-width: 0.8"/>
      </g>
     </g>
     <g id="text_14">
      <!-- 12 -->
      <g transform="translate(35.015 192.25659) scale(0.1 -0.1)">
       <use xlink:href="#DejaVuSans-31"/>
       <use xlink:href="#DejaVuSans-32" x="63.623047"/>
      </g>
     </g>
    </g>
    <g id="ytick_6">
     <g id="line2d_14">
      <g>
       <use xlink:href="#m1de6dbef35" x="54.74" y="162.181714" style="stroke: #000000; stroke-width: 0.8"/>
      </g>
     </g>
     <g id="text_15">
      <!-- 15 -->
      <g transform="translate(35.015 165.980933) scale(0.1 -0.1)">
       <defs>
        <path id="DejaVuSans-35" d="M 691 4666 
L 3169 4666 
L 3169 4134 
L 1269 4134 
L 1269 2991 
Q 1406 3038 1543 3061 
Q 1681 3084 1819 3084 
Q 2600 3084 3056 2656 
Q 3513 2228 3513 1497 
Q 3513 744 3044 326 
Q 2575 -91 1722 -91 
Q 1428 -91 1123 -41 
Q 819 9 494 109 
L 494 744 
Q 775 591 1075 516 
Q 1375 441 1709 441 
Q 2250 441 2565 725 
Q 2881 1009 2881 1497 
Q 2881 1984 2565 2268 
Q 2250 2553 1709 2553 
Q 1456 2553 1204 2497 
Q 953 2441 691 2322 
L 691 4666 
z
" transform="scale(0.015625)"/>
       </defs>
       <use xlink:href="#DejaVuSans-31"/>
       <use xlink:href="#DejaVuSans-35" x="63.623047"/>
      </g>
     </g>
    </g>
    <g id="ytick_7">
     <g id="line2d_15">
      <g>
       <use xlink:href="#m1de6dbef35" x="54.74" y="135.906057" style="stroke: #000000; stroke-width: 0.8"/>
      </g>
     </g>
     <g id="text_16">
      <!-- 18 -->
      <g transform="translate(35.015 139.705276) scale(0.1 -0.1)">
       <use xlink:href="#DejaVuSans-31"/>
       <use xlink:href="#DejaVuSans-38" x="63.623047"/>
      </g>
     </g>
    </g>
    <g id="ytick_8">
     <g id="line2d_16">
      <g>
       <use xlink:href="#m1de6dbef35" x="54.74" y="109.6304" style="stroke: #000000; stroke-width: 0.8"/>
      </g>
     </g>
     <g id="text_17">
      <!-- 21 -->
      <g transform="translate(35.015 113.429619) scale(0.1 -0.1)">
       <use xlink:href="#DejaVuSans-32"/>
       <use xlink:href="#DejaVuSans-31" x="63.623047"/>
      </g>
     </g>
    </g>
    <g id="ytick_9">
     <g id="line2d_17">
      <g>
       <use xlink:href="#m1de6dbef35" x="54.74" y="83.354743" style="stroke: #000000; stroke-width: 0.8"/>
      </g>
     </g>
     <g id="text_18">
      <!-- 24 -->
      <g transform="translate(35.015 87.153962) scale(0.1 -0.1)">
       <use xlink:href="#DejaVuSans-32"/>
       <use xlink:href="#DejaVuSans-34" x="63.623047"/>
      </g>
     </g>
    </g>
    <g id="text_19">
     <!-- Genomes count -->
     <g transform="translate(26.855625 257.455562) rotate(-90) scale(0.2 -0.2)">
      <use xlink:href="#DejaVuSans-47"/>
      <use xlink:href="#DejaVuSans-65" x="77.490234"/>
      <use xlink:href="#DejaVuSans-6e" x="139.013672"/>
      <use xlink:href="#DejaVuSans-6f" x="202.392578"/>
      <use xlink:href="#DejaVuSans-6d" x="263.574219"/>
      <use xlink:href="#DejaVuSans-65" x="360.986328"/>
      <use xlink:href="#DejaVuSans-73" x="422.509766"/>
      <use xlink:href="#DejaVuSans-20" x="474.609375"/>
      <use xlink:href="#DejaVuSans-63" x="506.396484"/>
      <use xlink:href="#DejaVuSans-6f" x="561.376953"/>
      <use xlink:href="#DejaVuSans-75" x="622.558594"/>
      <use xlink:href="#DejaVuSans-6e" x="685.9375"/>
      <use xlink:href="#DejaVuSans-74" x="749.316406"/>
     </g>
    </g>
   </g>
   <g id="line2d_18">
    <path d="M 72.706364 277.860005 
L 76.317693 277.726632 
L 79.929022 277.870601 
L 83.540352 278.283098 
L 87.151681 278.941544 
L 90.763011 279.811626 
L 96.180005 281.417786 
L 105.208328 284.489765 
L 112.430987 286.893987 
L 117.847981 288.48874 
L 123.264975 289.836469 
L 128.681969 290.918943 
L 134.098963 291.748618 
L 139.515957 292.357467 
L 146.738616 292.896798 
L 153.961275 293.213399 
L 164.795263 293.441154 
L 182.85191 293.544502 
L 256.884162 293.56 
L 388.697684 293.452077 
L 432.033636 293.15308 
L 432.033636 293.15308 
" clip-path="url(#p37a61ecd74)" style="fill: none; stroke: #1f77b4; stroke-width: 1.5; stroke-linecap: square"/>
   </g>
   <g id="patch_119">
    <path d="M 54.74 293.56 
L 54.74 63.648 
" style="fill: none; stroke: #000000; stroke-width: 0.8; stroke-linejoin: miter; stroke-linecap: square"/>
   </g>
   <g id="patch_120">
    <path d="M 450 293.56 
L 450 63.648 
" style="fill: none; stroke: #000000; stroke-width: 0.8; stroke-linejoin: miter; stroke-linecap: square"/>
   </g>
   <g id="patch_121">
    <path d="M 54.74 293.56 
L 450 293.56 
" style="fill: none; stroke: #000000; stroke-width: 0.8; stroke-linejoin: miter; stroke-linecap: square"/>
   </g>
   <g id="patch_122">
    <path d="M 54.74 63.648 
L 450 63.648 
" style="fill: none; stroke: #000000; stroke-width: 0.8; stroke-linejoin: miter; stroke-linecap: square"/>
   </g>
   <g id="text_20">
    <!-- Distribution of Orphan genes -->
    <g transform="translate(71.311406 30.45425) scale(0.25 -0.25)">
     <defs>
      <path id="DejaVuSans-44" d="M 1259 4147 
L 1259 519 
L 2022 519 
Q 2988 519 3436 956 
Q 3884 1394 3884 2338 
Q 3884 3275 3436 3711 
Q 2988 4147 2022 4147 
L 1259 4147 
z
M 628 4666 
L 1925 4666 
Q 3281 4666 3915 4102 
Q 4550 3538 4550 2338 
Q 4550 1131 3912 565 
Q 3275 0 1925 0 
L 628 0 
L 628 4666 
z
" transform="scale(0.015625)"/>
      <path id="DejaVuSans-69" d="M 603 3500 
L 1178 3500 
L 1178 0 
L 603 0 
L 603 3500 
z
M 603 4863 
L 1178 4863 
L 1178 4134 
L 603 4134 
L 603 4863 
z
" transform="scale(0.015625)"/>
      <path id="DejaVuSans-62" d="M 3116 1747 
Q 3116 2381 2855 2742 
Q 2594 3103 2138 3103 
Q 1681 3103 1420 2742 
Q 1159 2381 1159 1747 
Q 1159 1113 1420 752 
Q 1681 391 2138 391 
Q 2594 391 2855 752 
Q 3116 1113 3116 1747 
z
M 1159 2969 
Q 1341 3281 1617 3432 
Q 1894 3584 2278 3584 
Q 2916 3584 3314 3078 
Q 3713 2572 3713 1747 
Q 3713 922 3314 415 
Q 2916 -91 2278 -91 
Q 1894 -91 1617 61 
Q 1341 213 1159 525 
L 1159 0 
L 581 0 
L 581 4863 
L 1159 4863 
L 1159 2969 
z
" transform="scale(0.015625)"/>
      <path id="DejaVuSans-66" d="M 2375 4863 
L 2375 4384 
L 1825 4384 
Q 1516 4384 1395 4259 
Q 1275 4134 1275 3809 
L 1275 3500 
L 2222 3500 
L 2222 3053 
L 1275 3053 
L 1275 0 
L 697 0 
L 697 3053 
L 147 3053 
L 147 3500 
L 697 3500 
L 697 3744 
Q 697 4328 969 4595 
Q 1241 4863 1831 4863 
L 2375 4863 
z
" transform="scale(0.015625)"/>
     </defs>
     <use xlink:href="#DejaVuSans-44"/>
     <use xlink:href="#DejaVuSans-69" x="77.001953"/>
     <use xlink:href="#DejaVuSans-73" x="104.785156"/>
     <use xlink:href="#DejaVuSans-74" x="156.884766"/>
     <use xlink:href="#DejaVuSans-72" x="196.09375"/>
     <use xlink:href="#DejaVuSans-69" x="237.207031"/>
     <use xlink:href="#DejaVuSans-62" x="264.990234"/>
     <use xlink:href="#DejaVuSans-75" x="328.466797"/>
     <use xlink:href="#DejaVuSans-74" x="391.845703"/>
     <use xlink:href="#DejaVuSans-69" x="431.054688"/>
     <use xlink:href="#DejaVuSans-6f" x="458.837891"/>
     <use xlink:href="#DejaVuSans-6e" x="520.019531"/>
     <use xlink:href="#DejaVuSans-20" x="583.398438"/>
     <use xlink:href="#DejaVuSans-6f" x="615.185547"/>
     <use xlink:href="#DejaVuSans-66" x="676.367188"/>
     <use xlink:href="#DejaVuSans-20" x="711.572266"/>
     <use xlink:href="#DejaVuSans-4f" x="743.359375"/>
     <use xlink:href="#DejaVuSans-72" x="822.070312"/>
     <use xlink:href="#DejaVuSans-70" x="863.183594"/>
     <use xlink:href="#DejaVuSans-68" x="926.660156"/>
     <use xlink:href="#DejaVuSans-61" x="990.039062"/>
     <use xlink:href="#DejaVuSans-6e" x="1051.318359"/>
     <use xlink:href="#DejaVuSans-20" x="1114.697266"/>
     <use xlink:href="#DejaVuSans-67" x="1146.484375"/>
     <use xlink:href="#DejaVuSans-65" x="1209.960938"/>
     <use xlink:href="#DejaVuSans-6e" x="1271.484375"/>
     <use xlink:href="#DejaVuSans-65" x="1334.863281"/>
     <use xlink:href="#DejaVuSans-73" x="1396.386719"/>
    </g>
    <!-- count -->
    <g transform="translate(217.104375 58.448781) scale(0.25 -0.25)">
     <use xlink:href="#DejaVuSans-63"/>
     <use xlink:href="#DejaVuSans-6f" x="54.980469"/>
     <use xlink:href="#DejaVuSans-75" x="116.162109"/>
     <use xlink:href="#DejaVuSans-6e" x="179.541016"/>
     <use xlink:href="#DejaVuSans-74" x="242.919922"/>
    </g>
   </g>
  </g>
 </g>
 <defs>
  <clipPath id="p37a61ecd74">
   <rect x="54.74" y="63.648" width="395.26" height="229.912"/>
  </clipPath>
 </defs>
</svg>
