<?xml version="1.0" encoding="utf-8" standalone="no"?>
<!DOCTYPE svg PUBLIC "-//W3C//DTD SVG 1.1//EN"
  "http://www.w3.org/Graphics/SVG/1.1/DTD/svg11.dtd">
<svg xmlns:xlink="http://www.w3.org/1999/xlink" width="460.8pt" height="345.6pt" viewBox="0 0 460.8 345.6" xmlns="http://www.w3.org/2000/svg" version="1.1">
 <metadata>
  <rdf:RDF xmlns:dc="http://purl.org/dc/elements/1.1/" xmlns:cc="http://creativecommons.org/ns#" xmlns:rdf="http://www.w3.org/1999/02/22-rdf-syntax-ns#">
   <cc:Work>
    <dc:type rdf:resource="http://purl.org/dc/dcmitype/StillImage"/>
    <dc:date>2025-04-21T10:02:45.574785</dc:date>
    <dc:format>image/svg+xml</dc:format>
    <dc:creator>
     <cc:Agent>
      <dc:title>Matplotlib v3.7.3, https://matplotlib.org/</dc:title>
     </cc:Agent>
    </dc:creator>
   </cc:Work>
  </rdf:RDF>
 </metadata>
 <defs>
  <style type="text/css">*{stroke-linejoin: round; stroke-linecap: butt}</style>
 </defs>
 <g id="figure_1">
  <g id="patch_1">
   <path d="M 0 345.6 
L 460.8 345.6 
L 460.8 0 
L 0 0 
z
" style="fill: #ffffff"/>
  </g>
  <g id="axes_1">
   <g id="patch_2">
    <path d="M 61.13 293.56 
L 450 293.56 
L 450 36.24 
L 61.13 36.24 
z
" style="fill: #ffffff"/>
   </g>
   <g id="patch_3">
    <path d="M 78.805909 293.56 
L 87.428304 293.56 
L 87.428304 252.077361 
L 78.805909 252.077361 
z
" clip-path="url(#pd248acaabd)" style="fill: #1f77b4; fill-opacity: 0.75; stroke: #000000; stroke-width: 0.79184; stroke-linejoin: miter"/>
   </g>
   <g id="patch_4">
    <path d="M 87.428304 293.56 
L 96.050698 293.56 
L 96.050698 207.40375 
L 87.428304 207.40375 
z
" clip-path="url(#pd248acaabd)" style="fill: #1f77b4; fill-opacity: 0.75; stroke: #000000; stroke-width: 0.79184; stroke-linejoin: miter"/>
   </g>
   <g id="patch_5">
    <path d="M 96.050698 293.56 
L 104.673093 293.56 
L 104.673093 246.971806 
L 96.050698 246.971806 
z
" clip-path="url(#pd248acaabd)" style="fill: #1f77b4; fill-opacity: 0.75; stroke: #000000; stroke-width: 0.79184; stroke-linejoin: miter"/>
   </g>
   <g id="patch_6">
    <path d="M 104.673093 293.56 
L 113.295488 293.56 
L 113.295488 278.881528 
L 104.673093 278.881528 
z
" clip-path="url(#pd248acaabd)" style="fill: #1f77b4; fill-opacity: 0.75; stroke: #000000; stroke-width: 0.79184; stroke-linejoin: miter"/>
   </g>
   <g id="patch_7">
    <path d="M 113.295488 293.56 
L 121.917882 293.56 
L 121.917882 260.373889 
L 113.295488 260.373889 
z
" clip-path="url(#pd248acaabd)" style="fill: #1f77b4; fill-opacity: 0.75; stroke: #000000; stroke-width: 0.79184; stroke-linejoin: miter"/>
   </g>
   <g id="patch_8">
    <path d="M 121.917882 293.56 
L 130.540277 293.56 
L 130.540277 287.178056 
L 121.917882 287.178056 
z
" clip-path="url(#pd248acaabd)" style="fill: #1f77b4; fill-opacity: 0.75; stroke: #000000; stroke-width: 0.79184; stroke-linejoin: miter"/>
   </g>
   <g id="patch_9">
    <path d="M 130.540277 293.56 
L 139.162672 293.56 
L 139.162672 291.645417 
L 130.540277 291.645417 
z
" clip-path="url(#pd248acaabd)" style="fill: #1f77b4; fill-opacity: 0.75; stroke: #000000; stroke-width: 0.79184; stroke-linejoin: miter"/>
   </g>
   <g id="patch_10">
    <path d="M 139.162672 293.56 
L 147.785067 293.56 
L 147.785067 292.283611 
L 139.162672 292.283611 
z
" clip-path="url(#pd248acaabd)" style="fill: #1f77b4; fill-opacity: 0.75; stroke: #000000; stroke-width: 0.79184; stroke-linejoin: miter"/>
   </g>
   <g id="patch_11">
    <path d="M 147.785067 293.56 
L 156.407461 293.56 
L 156.407461 287.178056 
L 147.785067 287.178056 
z
" clip-path="url(#pd248acaabd)" style="fill: #1f77b4; fill-opacity: 0.75; stroke: #000000; stroke-width: 0.79184; stroke-linejoin: miter"/>
   </g>
   <g id="patch_12">
    <path d="M 156.407461 293.56 
L 165.029856 293.56 
L 165.029856 287.81625 
L 156.407461 287.81625 
z
" clip-path="url(#pd248acaabd)" style="fill: #1f77b4; fill-opacity: 0.75; stroke: #000000; stroke-width: 0.79184; stroke-linejoin: miter"/>
   </g>
   <g id="patch_13">
    <path d="M 165.029856 293.56 
L 173.652251 293.56 
L 173.652251 289.730833 
L 165.029856 289.730833 
z
" clip-path="url(#pd248acaabd)" style="fill: #1f77b4; fill-opacity: 0.75; stroke: #000000; stroke-width: 0.79184; stroke-linejoin: miter"/>
   </g>
   <g id="patch_14">
    <path d="M 173.652251 293.56 
L 182.274645 293.56 
L 182.274645 291.007222 
L 173.652251 291.007222 
z
" clip-path="url(#pd248acaabd)" style="fill: #1f77b4; fill-opacity: 0.75; stroke: #000000; stroke-width: 0.79184; stroke-linejoin: miter"/>
   </g>
   <g id="patch_15">
    <path d="M 182.274645 293.56 
L 190.89704 293.56 
L 190.89704 292.283611 
L 182.274645 292.283611 
z
" clip-path="url(#pd248acaabd)" style="fill: #1f77b4; fill-opacity: 0.75; stroke: #000000; stroke-width: 0.79184; stroke-linejoin: miter"/>
   </g>
   <g id="patch_16">
    <path d="M 190.89704 293.56 
L 199.519435 293.56 
L 199.519435 285.901667 
L 190.89704 285.901667 
z
" clip-path="url(#pd248acaabd)" style="fill: #1f77b4; fill-opacity: 0.75; stroke: #000000; stroke-width: 0.79184; stroke-linejoin: miter"/>
   </g>
   <g id="patch_17">
    <path d="M 199.519435 293.56 
L 208.141829 293.56 
L 208.141829 246.971806 
L 199.519435 246.971806 
z
" clip-path="url(#pd248acaabd)" style="fill: #1f77b4; fill-opacity: 0.75; stroke: #000000; stroke-width: 0.79184; stroke-linejoin: miter"/>
   </g>
   <g id="patch_18">
    <path d="M 208.141829 293.56 
L 216.764224 293.56 
L 216.764224 289.730833 
L 208.141829 289.730833 
z
" clip-path="url(#pd248acaabd)" style="fill: #1f77b4; fill-opacity: 0.75; stroke: #000000; stroke-width: 0.79184; stroke-linejoin: miter"/>
   </g>
   <g id="patch_19">
    <path d="M 216.764224 293.56 
L 225.386619 293.56 
L 225.386619 286.539861 
L 216.764224 286.539861 
z
" clip-path="url(#pd248acaabd)" style="fill: #1f77b4; fill-opacity: 0.75; stroke: #000000; stroke-width: 0.79184; stroke-linejoin: miter"/>
   </g>
   <g id="patch_20">
    <path d="M 225.386619 293.56 
L 234.009013 293.56 
L 234.009013 288.454444 
L 225.386619 288.454444 
z
" clip-path="url(#pd248acaabd)" style="fill: #1f77b4; fill-opacity: 0.75; stroke: #000000; stroke-width: 0.79184; stroke-linejoin: miter"/>
   </g>
   <g id="patch_21">
    <path d="M 234.009013 293.56 
L 242.631408 293.56 
L 242.631408 285.263472 
L 234.009013 285.263472 
z
" clip-path="url(#pd248acaabd)" style="fill: #1f77b4; fill-opacity: 0.75; stroke: #000000; stroke-width: 0.79184; stroke-linejoin: miter"/>
   </g>
   <g id="patch_22">
    <path d="M 242.631408 293.56 
L 251.253803 293.56 
L 251.253803 282.0725 
L 242.631408 282.0725 
z
" clip-path="url(#pd248acaabd)" style="fill: #1f77b4; fill-opacity: 0.75; stroke: #000000; stroke-width: 0.79184; stroke-linejoin: miter"/>
   </g>
   <g id="patch_23">
    <path d="M 251.253803 293.56 
L 259.876197 293.56 
L 259.876197 269.946806 
L 251.253803 269.946806 
z
" clip-path="url(#pd248acaabd)" style="fill: #1f77b4; fill-opacity: 0.75; stroke: #000000; stroke-width: 0.79184; stroke-linejoin: miter"/>
   </g>
   <g id="patch_24">
    <path d="M 259.876197 293.56 
L 268.498592 293.56 
L 268.498592 285.901667 
L 259.876197 285.901667 
z
" clip-path="url(#pd248acaabd)" style="fill: #1f77b4; fill-opacity: 0.75; stroke: #000000; stroke-width: 0.79184; stroke-linejoin: miter"/>
   </g>
   <g id="patch_25">
    <path d="M 268.498592 293.56 
L 277.120987 293.56 
L 277.120987 271.223194 
L 268.498592 271.223194 
z
" clip-path="url(#pd248acaabd)" style="fill: #1f77b4; fill-opacity: 0.75; stroke: #000000; stroke-width: 0.79184; stroke-linejoin: miter"/>
   </g>
   <g id="patch_26">
    <path d="M 277.120987 293.56 
L 285.743381 293.56 
L 285.743381 285.901667 
L 277.120987 285.901667 
z
" clip-path="url(#pd248acaabd)" style="fill: #1f77b4; fill-opacity: 0.75; stroke: #000000; stroke-width: 0.79184; stroke-linejoin: miter"/>
   </g>
   <g id="patch_27">
    <path d="M 285.743381 293.56 
L 294.365776 293.56 
L 294.365776 271.223194 
L 285.743381 271.223194 
z
" clip-path="url(#pd248acaabd)" style="fill: #1f77b4; fill-opacity: 0.75; stroke: #000000; stroke-width: 0.79184; stroke-linejoin: miter"/>
   </g>
   <g id="patch_28">
    <path d="M 294.365776 293.56 
L 302.988171 293.56 
L 302.988171 289.092639 
L 294.365776 289.092639 
z
" clip-path="url(#pd248acaabd)" style="fill: #1f77b4; fill-opacity: 0.75; stroke: #000000; stroke-width: 0.79184; stroke-linejoin: miter"/>
   </g>
   <g id="patch_29">
    <path d="M 302.988171 293.56 
L 311.610565 293.56 
L 311.610565 292.283611 
L 302.988171 292.283611 
z
" clip-path="url(#pd248acaabd)" style="fill: #1f77b4; fill-opacity: 0.75; stroke: #000000; stroke-width: 0.79184; stroke-linejoin: miter"/>
   </g>
   <g id="patch_30">
    <path d="M 311.610565 293.56 
L 320.23296 293.56 
L 320.23296 291.007222 
L 311.610565 291.007222 
z
" clip-path="url(#pd248acaabd)" style="fill: #1f77b4; fill-opacity: 0.75; stroke: #000000; stroke-width: 0.79184; stroke-linejoin: miter"/>
   </g>
   <g id="patch_31">
    <path d="M 320.23296 293.56 
L 328.855355 293.56 
L 328.855355 293.56 
L 320.23296 293.56 
z
" clip-path="url(#pd248acaabd)" style="fill: #1f77b4; fill-opacity: 0.75; stroke: #000000; stroke-width: 0.79184; stroke-linejoin: miter"/>
   </g>
   <g id="patch_32">
    <path d="M 328.855355 293.56 
L 337.477749 293.56 
L 337.477749 292.921806 
L 328.855355 292.921806 
z
" clip-path="url(#pd248acaabd)" style="fill: #1f77b4; fill-opacity: 0.75; stroke: #000000; stroke-width: 0.79184; stroke-linejoin: miter"/>
   </g>
   <g id="patch_33">
    <path d="M 337.477749 293.56 
L 346.100144 293.56 
L 346.100144 292.921806 
L 337.477749 292.921806 
z
" clip-path="url(#pd248acaabd)" style="fill: #1f77b4; fill-opacity: 0.75; stroke: #000000; stroke-width: 0.79184; stroke-linejoin: miter"/>
   </g>
   <g id="patch_34">
    <path d="M 346.100144 293.56 
L 354.722539 293.56 
L 354.722539 292.921806 
L 346.100144 292.921806 
z
" clip-path="url(#pd248acaabd)" style="fill: #1f77b4; fill-opacity: 0.75; stroke: #000000; stroke-width: 0.79184; stroke-linejoin: miter"/>
   </g>
   <g id="patch_35">
    <path d="M 354.722539 293.56 
L 363.344933 293.56 
L 363.344933 293.56 
L 354.722539 293.56 
z
" clip-path="url(#pd248acaabd)" style="fill: #1f77b4; fill-opacity: 0.75; stroke: #000000; stroke-width: 0.79184; stroke-linejoin: miter"/>
   </g>
   <g id="patch_36">
    <path d="M 363.344933 293.56 
L 371.967328 293.56 
L 371.967328 293.56 
L 363.344933 293.56 
z
" clip-path="url(#pd248acaabd)" style="fill: #1f77b4; fill-opacity: 0.75; stroke: #000000; stroke-width: 0.79184; stroke-linejoin: miter"/>
   </g>
   <g id="patch_37">
    <path d="M 371.967328 293.56 
L 380.589723 293.56 
L 380.589723 292.921806 
L 371.967328 292.921806 
z
" clip-path="url(#pd248acaabd)" style="fill: #1f77b4; fill-opacity: 0.75; stroke: #000000; stroke-width: 0.79184; stroke-linejoin: miter"/>
   </g>
   <g id="patch_38">
    <path d="M 380.589723 293.56 
L 389.212118 293.56 
L 389.212118 291.645417 
L 380.589723 291.645417 
z
" clip-path="url(#pd248acaabd)" style="fill: #1f77b4; fill-opacity: 0.75; stroke: #000000; stroke-width: 0.79184; stroke-linejoin: miter"/>
   </g>
   <g id="patch_39">
    <path d="M 389.212118 293.56 
L 397.834512 293.56 
L 397.834512 289.092639 
L 389.212118 289.092639 
z
" clip-path="url(#pd248acaabd)" style="fill: #1f77b4; fill-opacity: 0.75; stroke: #000000; stroke-width: 0.79184; stroke-linejoin: miter"/>
   </g>
   <g id="patch_40">
    <path d="M 397.834512 293.56 
L 406.456907 293.56 
L 406.456907 287.178056 
L 397.834512 287.178056 
z
" clip-path="url(#pd248acaabd)" style="fill: #1f77b4; fill-opacity: 0.75; stroke: #000000; stroke-width: 0.79184; stroke-linejoin: miter"/>
   </g>
   <g id="patch_41">
    <path d="M 406.456907 293.56 
L 415.079302 293.56 
L 415.079302 264.84125 
L 406.456907 264.84125 
z
" clip-path="url(#pd248acaabd)" style="fill: #1f77b4; fill-opacity: 0.75; stroke: #000000; stroke-width: 0.79184; stroke-linejoin: miter"/>
   </g>
   <g id="patch_42">
    <path d="M 415.079302 293.56 
L 423.701696 293.56 
L 423.701696 88.061389 
L 415.079302 88.061389 
z
" clip-path="url(#pd248acaabd)" style="fill: #1f77b4; fill-opacity: 0.75; stroke: #000000; stroke-width: 0.79184; stroke-linejoin: miter"/>
   </g>
   <g id="patch_43">
    <path d="M 423.701696 293.56 
L 432.324091 293.56 
L 432.324091 48.493333 
L 423.701696 48.493333 
z
" clip-path="url(#pd248acaabd)" style="fill: #1f77b4; fill-opacity: 0.75; stroke: #000000; stroke-width: 0.79184; stroke-linejoin: miter"/>
   </g>
   <g id="matplotlib.axis_1">
    <g id="xtick_1">
     <g id="line2d_1">
      <defs>
       <path id="maf60f54745" d="M 0 0 
L 0 3.5 
" style="stroke: #000000; stroke-width: 0.8"/>
      </defs>
      <g>
       <use xlink:href="#maf60f54745" x="74.494712" y="293.56" style="stroke: #000000; stroke-width: 0.8"/>
      </g>
     </g>
     <g id="text_1">
      <!-- 0 -->
      <g transform="translate(71.313462 308.158437) scale(0.1 -0.1)">
       <defs>
        <path id="DejaVuSans-30" d="M 2034 4250 
Q 1547 4250 1301 3770 
Q 1056 3291 1056 2328 
Q 1056 1369 1301 889 
Q 1547 409 2034 409 
Q 2525 409 2770 889 
Q 3016 1369 3016 2328 
Q 3016 3291 2770 3770 
Q 2525 4250 2034 4250 
z
M 2034 4750 
Q 2819 4750 3233 4129 
Q 3647 3509 3647 2328 
Q 3647 1150 3233 529 
Q 2819 -91 2034 -91 
Q 1250 -91 836 529 
Q 422 1150 422 2328 
Q 422 3509 836 4129 
Q 1250 4750 2034 4750 
z
" transform="scale(0.015625)"/>
       </defs>
       <use xlink:href="#DejaVuSans-30"/>
      </g>
     </g>
    </g>
    <g id="xtick_2">
     <g id="line2d_2">
      <g>
       <use xlink:href="#maf60f54745" x="160.718659" y="293.56" style="stroke: #000000; stroke-width: 0.8"/>
      </g>
     </g>
     <g id="text_2">
      <!-- 10 -->
      <g transform="translate(154.356159 308.158437) scale(0.1 -0.1)">
       <defs>
        <path id="DejaVuSans-31" d="M 794 531 
L 1825 531 
L 1825 4091 
L 703 3866 
L 703 4441 
L 1819 4666 
L 2450 4666 
L 2450 531 
L 3481 531 
L 3481 0 
L 794 0 
L 794 531 
z
" transform="scale(0.015625)"/>
       </defs>
       <use xlink:href="#DejaVuSans-31"/>
       <use xlink:href="#DejaVuSans-30" x="63.623047"/>
      </g>
     </g>
    </g>
    <g id="xtick_3">
     <g id="line2d_3">
      <g>
       <use xlink:href="#maf60f54745" x="246.942605" y="293.56" style="stroke: #000000; stroke-width: 0.8"/>
      </g>
     </g>
     <g id="text_3">
      <!-- 20 -->
      <g transform="translate(240.580105 308.158437) scale(0.1 -0.1)">
       <defs>
        <path id="DejaVuSans-32" d="M 1228 531 
L 3431 531 
L 3431 0 
L 469 0 
L 469 531 
Q 828 903 1448 1529 
Q 2069 2156 2228 2338 
Q 2531 2678 2651 2914 
Q 2772 3150 2772 3378 
Q 2772 3750 2511 3984 
Q 2250 4219 1831 4219 
Q 1534 4219 1204 4116 
Q 875 4013 500 3803 
L 500 4441 
Q 881 4594 1212 4672 
Q 1544 4750 1819 4750 
Q 2544 4750 2975 4387 
Q 3406 4025 3406 3419 
Q 3406 3131 3298 2873 
Q 3191 2616 2906 2266 
Q 2828 2175 2409 1742 
Q 1991 1309 1228 531 
z
" transform="scale(0.015625)"/>
       </defs>
       <use xlink:href="#DejaVuSans-32"/>
       <use xlink:href="#DejaVuSans-30" x="63.623047"/>
      </g>
     </g>
    </g>
    <g id="xtick_4">
     <g id="line2d_4">
      <g>
       <use xlink:href="#maf60f54745" x="333.166552" y="293.56" style="stroke: #000000; stroke-width: 0.8"/>
      </g>
     </g>
     <g id="text_4">
      <!-- 30 -->
      <g transform="translate(326.804052 308.158437) scale(0.1 -0.1)">
       <defs>
        <path id="DejaVuSans-33" d="M 2597 2516 
Q 3050 2419 3304 2112 
Q 3559 1806 3559 1356 
Q 3559 666 3084 287 
Q 2609 -91 1734 -91 
Q 1441 -91 1130 -33 
Q 819 25 488 141 
L 488 750 
Q 750 597 1062 519 
Q 1375 441 1716 441 
Q 2309 441 2620 675 
Q 2931 909 2931 1356 
Q 2931 1769 2642 2001 
Q 2353 2234 1838 2234 
L 1294 2234 
L 1294 2753 
L 1863 2753 
Q 2328 2753 2575 2939 
Q 2822 3125 2822 3475 
Q 2822 3834 2567 4026 
Q 2313 4219 1838 4219 
Q 1578 4219 1281 4162 
Q 984 4106 628 3988 
L 628 4550 
Q 988 4650 1302 4700 
Q 1616 4750 1894 4750 
Q 2613 4750 3031 4423 
Q 3450 4097 3450 3541 
Q 3450 3153 3228 2886 
Q 3006 2619 2597 2516 
z
" transform="scale(0.015625)"/>
       </defs>
       <use xlink:href="#DejaVuSans-33"/>
       <use xlink:href="#DejaVuSans-30" x="63.623047"/>
      </g>
     </g>
    </g>
    <g id="xtick_5">
     <g id="line2d_5">
      <g>
       <use xlink:href="#maf60f54745" x="419.390499" y="293.56" style="stroke: #000000; stroke-width: 0.8"/>
      </g>
     </g>
     <g id="text_5">
      <!-- 40 -->
      <g transform="translate(413.027999 308.158437) scale(0.1 -0.1)">
       <defs>
        <path id="DejaVuSans-34" d="M 2419 4116 
L 825 1625 
L 2419 1625 
L 2419 4116 
z
M 2253 4666 
L 3047 4666 
L 3047 1625 
L 3713 1625 
L 3713 1100 
L 3047 1100 
L 3047 0 
L 2419 0 
L 2419 1100 
L 313 1100 
L 313 1709 
L 2253 4666 
z
" transform="scale(0.015625)"/>
       </defs>
       <use xlink:href="#DejaVuSans-34"/>
       <use xlink:href="#DejaVuSans-30" x="63.623047"/>
      </g>
     </g>
    </g>
    <g id="text_6">
     <!-- OG size (number of genomes) -->
     <g transform="translate(105.311875 329.435) scale(0.2 -0.2)">
      <defs>
       <path id="DejaVuSans-4f" d="M 2522 4238 
Q 1834 4238 1429 3725 
Q 1025 3213 1025 2328 
Q 1025 1447 1429 934 
Q 1834 422 2522 422 
Q 3209 422 3611 934 
Q 4013 1447 4013 2328 
Q 4013 3213 3611 3725 
Q 3209 4238 2522 4238 
z
M 2522 4750 
Q 3503 4750 4090 4092 
Q 4678 3434 4678 2328 
Q 4678 1225 4090 567 
Q 3503 -91 2522 -91 
Q 1538 -91 948 565 
Q 359 1222 359 2328 
Q 359 3434 948 4092 
Q 1538 4750 2522 4750 
z
" transform="scale(0.015625)"/>
       <path id="DejaVuSans-47" d="M 3809 666 
L 3809 1919 
L 2778 1919 
L 2778 2438 
L 4434 2438 
L 4434 434 
Q 4069 175 3628 42 
Q 3188 -91 2688 -91 
Q 1594 -91 976 548 
Q 359 1188 359 2328 
Q 359 3472 976 4111 
Q 1594 4750 2688 4750 
Q 3144 4750 3555 4637 
Q 3966 4525 4313 4306 
L 4313 3634 
Q 3963 3931 3569 4081 
Q 3175 4231 2741 4231 
Q 1884 4231 1454 3753 
Q 1025 3275 1025 2328 
Q 1025 1384 1454 906 
Q 1884 428 2741 428 
Q 3075 428 3337 486 
Q 3600 544 3809 666 
z
" transform="scale(0.015625)"/>
       <path id="DejaVuSans-20" transform="scale(0.015625)"/>
       <path id="DejaVuSans-73" d="M 2834 3397 
L 2834 2853 
Q 2591 2978 2328 3040 
Q 2066 3103 1784 3103 
Q 1356 3103 1142 2972 
Q 928 2841 928 2578 
Q 928 2378 1081 2264 
Q 1234 2150 1697 2047 
L 1894 2003 
Q 2506 1872 2764 1633 
Q 3022 1394 3022 966 
Q 3022 478 2636 193 
Q 2250 -91 1575 -91 
Q 1294 -91 989 -36 
Q 684 19 347 128 
L 347 722 
Q 666 556 975 473 
Q 1284 391 1588 391 
Q 1994 391 2212 530 
Q 2431 669 2431 922 
Q 2431 1156 2273 1281 
Q 2116 1406 1581 1522 
L 1381 1569 
Q 847 1681 609 1914 
Q 372 2147 372 2553 
Q 372 3047 722 3315 
Q 1072 3584 1716 3584 
Q 2034 3584 2315 3537 
Q 2597 3491 2834 3397 
z
" transform="scale(0.015625)"/>
       <path id="DejaVuSans-69" d="M 603 3500 
L 1178 3500 
L 1178 0 
L 603 0 
L 603 3500 
z
M 603 4863 
L 1178 4863 
L 1178 4134 
L 603 4134 
L 603 4863 
z
" transform="scale(0.015625)"/>
       <path id="DejaVuSans-7a" d="M 353 3500 
L 3084 3500 
L 3084 2975 
L 922 459 
L 3084 459 
L 3084 0 
L 275 0 
L 275 525 
L 2438 3041 
L 353 3041 
L 353 3500 
z
" transform="scale(0.015625)"/>
       <path id="DejaVuSans-65" d="M 3597 1894 
L 3597 1613 
L 953 1613 
Q 991 1019 1311 708 
Q 1631 397 2203 397 
Q 2534 397 2845 478 
Q 3156 559 3463 722 
L 3463 178 
Q 3153 47 2828 -22 
Q 2503 -91 2169 -91 
Q 1331 -91 842 396 
Q 353 884 353 1716 
Q 353 2575 817 3079 
Q 1281 3584 2069 3584 
Q 2775 3584 3186 3129 
Q 3597 2675 3597 1894 
z
M 3022 2063 
Q 3016 2534 2758 2815 
Q 2500 3097 2075 3097 
Q 1594 3097 1305 2825 
Q 1016 2553 972 2059 
L 3022 2063 
z
" transform="scale(0.015625)"/>
       <path id="DejaVuSans-28" d="M 1984 4856 
Q 1566 4138 1362 3434 
Q 1159 2731 1159 2009 
Q 1159 1288 1364 580 
Q 1569 -128 1984 -844 
L 1484 -844 
Q 1016 -109 783 600 
Q 550 1309 550 2009 
Q 550 2706 781 3412 
Q 1013 4119 1484 4856 
L 1984 4856 
z
" transform="scale(0.015625)"/>
       <path id="DejaVuSans-6e" d="M 3513 2113 
L 3513 0 
L 2938 0 
L 2938 2094 
Q 2938 2591 2744 2837 
Q 2550 3084 2163 3084 
Q 1697 3084 1428 2787 
Q 1159 2491 1159 1978 
L 1159 0 
L 581 0 
L 581 3500 
L 1159 3500 
L 1159 2956 
Q 1366 3272 1645 3428 
Q 1925 3584 2291 3584 
Q 2894 3584 3203 3211 
Q 3513 2838 3513 2113 
z
" transform="scale(0.015625)"/>
       <path id="DejaVuSans-75" d="M 544 1381 
L 544 3500 
L 1119 3500 
L 1119 1403 
Q 1119 906 1312 657 
Q 1506 409 1894 409 
Q 2359 409 2629 706 
Q 2900 1003 2900 1516 
L 2900 3500 
L 3475 3500 
L 3475 0 
L 2900 0 
L 2900 538 
Q 2691 219 2414 64 
Q 2138 -91 1772 -91 
Q 1169 -91 856 284 
Q 544 659 544 1381 
z
M 1991 3584 
L 1991 3584 
z
" transform="scale(0.015625)"/>
       <path id="DejaVuSans-6d" d="M 3328 2828 
Q 3544 3216 3844 3400 
Q 4144 3584 4550 3584 
Q 5097 3584 5394 3201 
Q 5691 2819 5691 2113 
L 5691 0 
L 5113 0 
L 5113 2094 
Q 5113 2597 4934 2840 
Q 4756 3084 4391 3084 
Q 3944 3084 3684 2787 
Q 3425 2491 3425 1978 
L 3425 0 
L 2847 0 
L 2847 2094 
Q 2847 2600 2669 2842 
Q 2491 3084 2119 3084 
Q 1678 3084 1418 2786 
Q 1159 2488 1159 1978 
L 1159 0 
L 581 0 
L 581 3500 
L 1159 3500 
L 1159 2956 
Q 1356 3278 1631 3431 
Q 1906 3584 2284 3584 
Q 2666 3584 2933 3390 
Q 3200 3197 3328 2828 
z
" transform="scale(0.015625)"/>
       <path id="DejaVuSans-62" d="M 3116 1747 
Q 3116 2381 2855 2742 
Q 2594 3103 2138 3103 
Q 1681 3103 1420 2742 
Q 1159 2381 1159 1747 
Q 1159 1113 1420 752 
Q 1681 391 2138 391 
Q 2594 391 2855 752 
Q 3116 1113 3116 1747 
z
M 1159 2969 
Q 1341 3281 1617 3432 
Q 1894 3584 2278 3584 
Q 2916 3584 3314 3078 
Q 3713 2572 3713 1747 
Q 3713 922 3314 415 
Q 2916 -91 2278 -91 
Q 1894 -91 1617 61 
Q 1341 213 1159 525 
L 1159 0 
L 581 0 
L 581 4863 
L 1159 4863 
L 1159 2969 
z
" transform="scale(0.015625)"/>
       <path id="DejaVuSans-72" d="M 2631 2963 
Q 2534 3019 2420 3045 
Q 2306 3072 2169 3072 
Q 1681 3072 1420 2755 
Q 1159 2438 1159 1844 
L 1159 0 
L 581 0 
L 581 3500 
L 1159 3500 
L 1159 2956 
Q 1341 3275 1631 3429 
Q 1922 3584 2338 3584 
Q 2397 3584 2469 3576 
Q 2541 3569 2628 3553 
L 2631 2963 
z
" transform="scale(0.015625)"/>
       <path id="DejaVuSans-6f" d="M 1959 3097 
Q 1497 3097 1228 2736 
Q 959 2375 959 1747 
Q 959 1119 1226 758 
Q 1494 397 1959 397 
Q 2419 397 2687 759 
Q 2956 1122 2956 1747 
Q 2956 2369 2687 2733 
Q 2419 3097 1959 3097 
z
M 1959 3584 
Q 2709 3584 3137 3096 
Q 3566 2609 3566 1747 
Q 3566 888 3137 398 
Q 2709 -91 1959 -91 
Q 1206 -91 779 398 
Q 353 888 353 1747 
Q 353 2609 779 3096 
Q 1206 3584 1959 3584 
z
" transform="scale(0.015625)"/>
       <path id="DejaVuSans-66" d="M 2375 4863 
L 2375 4384 
L 1825 4384 
Q 1516 4384 1395 4259 
Q 1275 4134 1275 3809 
L 1275 3500 
L 2222 3500 
L 2222 3053 
L 1275 3053 
L 1275 0 
L 697 0 
L 697 3053 
L 147 3053 
L 147 3500 
L 697 3500 
L 697 3744 
Q 697 4328 969 4595 
Q 1241 4863 1831 4863 
L 2375 4863 
z
" transform="scale(0.015625)"/>
       <path id="DejaVuSans-67" d="M 2906 1791 
Q 2906 2416 2648 2759 
Q 2391 3103 1925 3103 
Q 1463 3103 1205 2759 
Q 947 2416 947 1791 
Q 947 1169 1205 825 
Q 1463 481 1925 481 
Q 2391 481 2648 825 
Q 2906 1169 2906 1791 
z
M 3481 434 
Q 3481 -459 3084 -895 
Q 2688 -1331 1869 -1331 
Q 1566 -1331 1297 -1286 
Q 1028 -1241 775 -1147 
L 775 -588 
Q 1028 -725 1275 -790 
Q 1522 -856 1778 -856 
Q 2344 -856 2625 -561 
Q 2906 -266 2906 331 
L 2906 616 
Q 2728 306 2450 153 
Q 2172 0 1784 0 
Q 1141 0 747 490 
Q 353 981 353 1791 
Q 353 2603 747 3093 
Q 1141 3584 1784 3584 
Q 2172 3584 2450 3431 
Q 2728 3278 2906 2969 
L 2906 3500 
L 3481 3500 
L 3481 434 
z
" transform="scale(0.015625)"/>
       <path id="DejaVuSans-29" d="M 513 4856 
L 1013 4856 
Q 1481 4119 1714 3412 
Q 1947 2706 1947 2009 
Q 1947 1309 1714 600 
Q 1481 -109 1013 -844 
L 513 -844 
Q 928 -128 1133 580 
Q 1338 1288 1338 2009 
Q 1338 2731 1133 3434 
Q 928 4138 513 4856 
z
" transform="scale(0.015625)"/>
      </defs>
      <use xlink:href="#DejaVuSans-4f"/>
      <use xlink:href="#DejaVuSans-47" x="78.710938"/>
      <use xlink:href="#DejaVuSans-20" x="156.201172"/>
      <use xlink:href="#DejaVuSans-73" x="187.988281"/>
      <use xlink:href="#DejaVuSans-69" x="240.087891"/>
      <use xlink:href="#DejaVuSans-7a" x="267.871094"/>
      <use xlink:href="#DejaVuSans-65" x="320.361328"/>
      <use xlink:href="#DejaVuSans-20" x="381.884766"/>
      <use xlink:href="#DejaVuSans-28" x="413.671875"/>
      <use xlink:href="#DejaVuSans-6e" x="452.685547"/>
      <use xlink:href="#DejaVuSans-75" x="516.064453"/>
      <use xlink:href="#DejaVuSans-6d" x="579.443359"/>
      <use xlink:href="#DejaVuSans-62" x="676.855469"/>
      <use xlink:href="#DejaVuSans-65" x="740.332031"/>
      <use xlink:href="#DejaVuSans-72" x="801.855469"/>
      <use xlink:href="#DejaVuSans-20" x="842.96875"/>
      <use xlink:href="#DejaVuSans-6f" x="874.755859"/>
      <use xlink:href="#DejaVuSans-66" x="935.9375"/>
      <use xlink:href="#DejaVuSans-20" x="971.142578"/>
      <use xlink:href="#DejaVuSans-67" x="1002.929688"/>
      <use xlink:href="#DejaVuSans-65" x="1066.40625"/>
      <use xlink:href="#DejaVuSans-6e" x="1127.929688"/>
      <use xlink:href="#DejaVuSans-6f" x="1191.308594"/>
      <use xlink:href="#DejaVuSans-6d" x="1252.490234"/>
      <use xlink:href="#DejaVuSans-65" x="1349.902344"/>
      <use xlink:href="#DejaVuSans-73" x="1411.425781"/>
      <use xlink:href="#DejaVuSans-29" x="1463.525391"/>
     </g>
    </g>
   </g>
   <g id="matplotlib.axis_2">
    <g id="ytick_1">
     <g id="line2d_6">
      <defs>
       <path id="m4f00c06ad0" d="M 0 0 
L -3.5 0 
" style="stroke: #000000; stroke-width: 0.8"/>
      </defs>
      <g>
       <use xlink:href="#m4f00c06ad0" x="61.13" y="293.56" style="stroke: #000000; stroke-width: 0.8"/>
      </g>
     </g>
     <g id="text_7">
      <!-- 0 -->
      <g transform="translate(47.7675 297.359219) scale(0.1 -0.1)">
       <use xlink:href="#DejaVuSans-30"/>
      </g>
     </g>
    </g>
    <g id="ytick_2">
     <g id="line2d_7">
      <g>
       <use xlink:href="#m4f00c06ad0" x="61.13" y="261.650278" style="stroke: #000000; stroke-width: 0.8"/>
      </g>
     </g>
     <g id="text_8">
      <!-- 50 -->
      <g transform="translate(41.405 265.449497) scale(0.1 -0.1)">
       <defs>
        <path id="DejaVuSans-35" d="M 691 4666 
L 3169 4666 
L 3169 4134 
L 1269 4134 
L 1269 2991 
Q 1406 3038 1543 3061 
Q 1681 3084 1819 3084 
Q 2600 3084 3056 2656 
Q 3513 2228 3513 1497 
Q 3513 744 3044 326 
Q 2575 -91 1722 -91 
Q 1428 -91 1123 -41 
Q 819 9 494 109 
L 494 744 
Q 775 591 1075 516 
Q 1375 441 1709 441 
Q 2250 441 2565 725 
Q 2881 1009 2881 1497 
Q 2881 1984 2565 2268 
Q 2250 2553 1709 2553 
Q 1456 2553 1204 2497 
Q 953 2441 691 2322 
L 691 4666 
z
" transform="scale(0.015625)"/>
       </defs>
       <use xlink:href="#DejaVuSans-35"/>
       <use xlink:href="#DejaVuSans-30" x="63.623047"/>
      </g>
     </g>
    </g>
    <g id="ytick_3">
     <g id="line2d_8">
      <g>
       <use xlink:href="#m4f00c06ad0" x="61.13" y="229.740556" style="stroke: #000000; stroke-width: 0.8"/>
      </g>
     </g>
     <g id="text_9">
      <!-- 100 -->
      <g transform="translate(35.0425 233.539774) scale(0.1 -0.1)">
       <use xlink:href="#DejaVuSans-31"/>
       <use xlink:href="#DejaVuSans-30" x="63.623047"/>
       <use xlink:href="#DejaVuSans-30" x="127.246094"/>
      </g>
     </g>
    </g>
    <g id="ytick_4">
     <g id="line2d_9">
      <g>
       <use xlink:href="#m4f00c06ad0" x="61.13" y="197.830833" style="stroke: #000000; stroke-width: 0.8"/>
      </g>
     </g>
     <g id="text_10">
      <!-- 150 -->
      <g transform="translate(35.0425 201.630052) scale(0.1 -0.1)">
       <use xlink:href="#DejaVuSans-31"/>
       <use xlink:href="#DejaVuSans-35" x="63.623047"/>
       <use xlink:href="#DejaVuSans-30" x="127.246094"/>
      </g>
     </g>
    </g>
    <g id="ytick_5">
     <g id="line2d_10">
      <g>
       <use xlink:href="#m4f00c06ad0" x="61.13" y="165.921111" style="stroke: #000000; stroke-width: 0.8"/>
      </g>
     </g>
     <g id="text_11">
      <!-- 200 -->
      <g transform="translate(35.0425 169.72033) scale(0.1 -0.1)">
       <use xlink:href="#DejaVuSans-32"/>
       <use xlink:href="#DejaVuSans-30" x="63.623047"/>
       <use xlink:href="#DejaVuSans-30" x="127.246094"/>
      </g>
     </g>
    </g>
    <g id="ytick_6">
     <g id="line2d_11">
      <g>
       <use xlink:href="#m4f00c06ad0" x="61.13" y="134.011389" style="stroke: #000000; stroke-width: 0.8"/>
      </g>
     </g>
     <g id="text_12">
      <!-- 250 -->
      <g transform="translate(35.0425 137.810608) scale(0.1 -0.1)">
       <use xlink:href="#DejaVuSans-32"/>
       <use xlink:href="#DejaVuSans-35" x="63.623047"/>
       <use xlink:href="#DejaVuSans-30" x="127.246094"/>
      </g>
     </g>
    </g>
    <g id="ytick_7">
     <g id="line2d_12">
      <g>
       <use xlink:href="#m4f00c06ad0" x="61.13" y="102.101667" style="stroke: #000000; stroke-width: 0.8"/>
      </g>
     </g>
     <g id="text_13">
      <!-- 300 -->
      <g transform="translate(35.0425 105.900885) scale(0.1 -0.1)">
       <use xlink:href="#DejaVuSans-33"/>
       <use xlink:href="#DejaVuSans-30" x="63.623047"/>
       <use xlink:href="#DejaVuSans-30" x="127.246094"/>
      </g>
     </g>
    </g>
    <g id="ytick_8">
     <g id="line2d_13">
      <g>
       <use xlink:href="#m4f00c06ad0" x="61.13" y="70.191944" style="stroke: #000000; stroke-width: 0.8"/>
      </g>
     </g>
     <g id="text_14">
      <!-- 350 -->
      <g transform="translate(35.0425 73.991163) scale(0.1 -0.1)">
       <use xlink:href="#DejaVuSans-33"/>
       <use xlink:href="#DejaVuSans-35" x="63.623047"/>
       <use xlink:href="#DejaVuSans-30" x="127.246094"/>
      </g>
     </g>
    </g>
    <g id="ytick_9">
     <g id="line2d_14">
      <g>
       <use xlink:href="#m4f00c06ad0" x="61.13" y="38.282222" style="stroke: #000000; stroke-width: 0.8"/>
      </g>
     </g>
     <g id="text_15">
      <!-- 400 -->
      <g transform="translate(35.0425 42.081441) scale(0.1 -0.1)">
       <use xlink:href="#DejaVuSans-34"/>
       <use xlink:href="#DejaVuSans-30" x="63.623047"/>
       <use xlink:href="#DejaVuSans-30" x="127.246094"/>
      </g>
     </g>
    </g>
    <g id="text_16">
     <!-- Count of OGs of each OG size -->
     <g transform="translate(26.883125 312.9) rotate(-90) scale(0.2 -0.2)">
      <defs>
       <path id="DejaVuSans-43" d="M 4122 4306 
L 4122 3641 
Q 3803 3938 3442 4084 
Q 3081 4231 2675 4231 
Q 1875 4231 1450 3742 
Q 1025 3253 1025 2328 
Q 1025 1406 1450 917 
Q 1875 428 2675 428 
Q 3081 428 3442 575 
Q 3803 722 4122 1019 
L 4122 359 
Q 3791 134 3420 21 
Q 3050 -91 2638 -91 
Q 1578 -91 968 557 
Q 359 1206 359 2328 
Q 359 3453 968 4101 
Q 1578 4750 2638 4750 
Q 3056 4750 3426 4639 
Q 3797 4528 4122 4306 
z
" transform="scale(0.015625)"/>
       <path id="DejaVuSans-74" d="M 1172 4494 
L 1172 3500 
L 2356 3500 
L 2356 3053 
L 1172 3053 
L 1172 1153 
Q 1172 725 1289 603 
Q 1406 481 1766 481 
L 2356 481 
L 2356 0 
L 1766 0 
Q 1100 0 847 248 
Q 594 497 594 1153 
L 594 3053 
L 172 3053 
L 172 3500 
L 594 3500 
L 594 4494 
L 1172 4494 
z
" transform="scale(0.015625)"/>
       <path id="DejaVuSans-61" d="M 2194 1759 
Q 1497 1759 1228 1600 
Q 959 1441 959 1056 
Q 959 750 1161 570 
Q 1363 391 1709 391 
Q 2188 391 2477 730 
Q 2766 1069 2766 1631 
L 2766 1759 
L 2194 1759 
z
M 3341 1997 
L 3341 0 
L 2766 0 
L 2766 531 
Q 2569 213 2275 61 
Q 1981 -91 1556 -91 
Q 1019 -91 701 211 
Q 384 513 384 1019 
Q 384 1609 779 1909 
Q 1175 2209 1959 2209 
L 2766 2209 
L 2766 2266 
Q 2766 2663 2505 2880 
Q 2244 3097 1772 3097 
Q 1472 3097 1187 3025 
Q 903 2953 641 2809 
L 641 3341 
Q 956 3463 1253 3523 
Q 1550 3584 1831 3584 
Q 2591 3584 2966 3190 
Q 3341 2797 3341 1997 
z
" transform="scale(0.015625)"/>
       <path id="DejaVuSans-63" d="M 3122 3366 
L 3122 2828 
Q 2878 2963 2633 3030 
Q 2388 3097 2138 3097 
Q 1578 3097 1268 2742 
Q 959 2388 959 1747 
Q 959 1106 1268 751 
Q 1578 397 2138 397 
Q 2388 397 2633 464 
Q 2878 531 3122 666 
L 3122 134 
Q 2881 22 2623 -34 
Q 2366 -91 2075 -91 
Q 1284 -91 818 406 
Q 353 903 353 1747 
Q 353 2603 823 3093 
Q 1294 3584 2113 3584 
Q 2378 3584 2631 3529 
Q 2884 3475 3122 3366 
z
" transform="scale(0.015625)"/>
       <path id="DejaVuSans-68" d="M 3513 2113 
L 3513 0 
L 2938 0 
L 2938 2094 
Q 2938 2591 2744 2837 
Q 2550 3084 2163 3084 
Q 1697 3084 1428 2787 
Q 1159 2491 1159 1978 
L 1159 0 
L 581 0 
L 581 4863 
L 1159 4863 
L 1159 2956 
Q 1366 3272 1645 3428 
Q 1925 3584 2291 3584 
Q 2894 3584 3203 3211 
Q 3513 2838 3513 2113 
z
" transform="scale(0.015625)"/>
      </defs>
      <use xlink:href="#DejaVuSans-43"/>
      <use xlink:href="#DejaVuSans-6f" x="69.824219"/>
      <use xlink:href="#DejaVuSans-75" x="131.005859"/>
      <use xlink:href="#DejaVuSans-6e" x="194.384766"/>
      <use xlink:href="#DejaVuSans-74" x="257.763672"/>
      <use xlink:href="#DejaVuSans-20" x="296.972656"/>
      <use xlink:href="#DejaVuSans-6f" x="328.759766"/>
      <use xlink:href="#DejaVuSans-66" x="389.941406"/>
      <use xlink:href="#DejaVuSans-20" x="425.146484"/>
      <use xlink:href="#DejaVuSans-4f" x="456.933594"/>
      <use xlink:href="#DejaVuSans-47" x="535.644531"/>
      <use xlink:href="#DejaVuSans-73" x="613.134766"/>
      <use xlink:href="#DejaVuSans-20" x="665.234375"/>
      <use xlink:href="#DejaVuSans-6f" x="697.021484"/>
      <use xlink:href="#DejaVuSans-66" x="758.203125"/>
      <use xlink:href="#DejaVuSans-20" x="793.408203"/>
      <use xlink:href="#DejaVuSans-65" x="825.195312"/>
      <use xlink:href="#DejaVuSans-61" x="886.71875"/>
      <use xlink:href="#DejaVuSans-63" x="947.998047"/>
      <use xlink:href="#DejaVuSans-68" x="1002.978516"/>
      <use xlink:href="#DejaVuSans-20" x="1066.357422"/>
      <use xlink:href="#DejaVuSans-4f" x="1098.144531"/>
      <use xlink:href="#DejaVuSans-47" x="1176.855469"/>
      <use xlink:href="#DejaVuSans-20" x="1254.345703"/>
      <use xlink:href="#DejaVuSans-73" x="1286.132812"/>
      <use xlink:href="#DejaVuSans-69" x="1338.232422"/>
      <use xlink:href="#DejaVuSans-7a" x="1366.015625"/>
      <use xlink:href="#DejaVuSans-65" x="1418.505859"/>
     </g>
    </g>
   </g>
   <g id="patch_44">
    <path d="M 61.13 293.56 
L 61.13 36.24 
" style="fill: none; stroke: #000000; stroke-width: 0.8; stroke-linejoin: miter; stroke-linecap: square"/>
   </g>
   <g id="patch_45">
    <path d="M 450 293.56 
L 450 36.24 
" style="fill: none; stroke: #000000; stroke-width: 0.8; stroke-linejoin: miter; stroke-linecap: square"/>
   </g>
   <g id="patch_46">
    <path d="M 61.13 293.56 
L 450 293.56 
" style="fill: none; stroke: #000000; stroke-width: 0.8; stroke-linejoin: miter; stroke-linecap: square"/>
   </g>
   <g id="patch_47">
    <path d="M 61.13 36.24 
L 450 36.24 
" style="fill: none; stroke: #000000; stroke-width: 0.8; stroke-linejoin: miter; stroke-linecap: square"/>
   </g>
   <g id="text_17">
    <!-- Orthogroups sizes distribution -->
    <g transform="translate(67.379453 30.24) scale(0.25 -0.25)">
     <defs>
      <path id="DejaVuSans-70" d="M 1159 525 
L 1159 -1331 
L 581 -1331 
L 581 3500 
L 1159 3500 
L 1159 2969 
Q 1341 3281 1617 3432 
Q 1894 3584 2278 3584 
Q 2916 3584 3314 3078 
Q 3713 2572 3713 1747 
Q 3713 922 3314 415 
Q 2916 -91 2278 -91 
Q 1894 -91 1617 61 
Q 1341 213 1159 525 
z
M 3116 1747 
Q 3116 2381 2855 2742 
Q 2594 3103 2138 3103 
Q 1681 3103 1420 2742 
Q 1159 2381 1159 1747 
Q 1159 1113 1420 752 
Q 1681 391 2138 391 
Q 2594 391 2855 752 
Q 3116 1113 3116 1747 
z
" transform="scale(0.015625)"/>
      <path id="DejaVuSans-64" d="M 2906 2969 
L 2906 4863 
L 3481 4863 
L 3481 0 
L 2906 0 
L 2906 525 
Q 2725 213 2448 61 
Q 2172 -91 1784 -91 
Q 1150 -91 751 415 
Q 353 922 353 1747 
Q 353 2572 751 3078 
Q 1150 3584 1784 3584 
Q 2172 3584 2448 3432 
Q 2725 3281 2906 2969 
z
M 947 1747 
Q 947 1113 1208 752 
Q 1469 391 1925 391 
Q 2381 391 2643 752 
Q 2906 1113 2906 1747 
Q 2906 2381 2643 2742 
Q 2381 3103 1925 3103 
Q 1469 3103 1208 2742 
Q 947 2381 947 1747 
z
" transform="scale(0.015625)"/>
     </defs>
     <use xlink:href="#DejaVuSans-4f"/>
     <use xlink:href="#DejaVuSans-72" x="78.710938"/>
     <use xlink:href="#DejaVuSans-74" x="119.824219"/>
     <use xlink:href="#DejaVuSans-68" x="159.033203"/>
     <use xlink:href="#DejaVuSans-6f" x="222.412109"/>
     <use xlink:href="#DejaVuSans-67" x="283.59375"/>
     <use xlink:href="#DejaVuSans-72" x="347.070312"/>
     <use xlink:href="#DejaVuSans-6f" x="385.933594"/>
     <use xlink:href="#DejaVuSans-75" x="447.115234"/>
     <use xlink:href="#DejaVuSans-70" x="510.494141"/>
     <use xlink:href="#DejaVuSans-73" x="573.970703"/>
     <use xlink:href="#DejaVuSans-20" x="626.070312"/>
     <use xlink:href="#DejaVuSans-73" x="657.857422"/>
     <use xlink:href="#DejaVuSans-69" x="709.957031"/>
     <use xlink:href="#DejaVuSans-7a" x="737.740234"/>
     <use xlink:href="#DejaVuSans-65" x="790.230469"/>
     <use xlink:href="#DejaVuSans-73" x="851.753906"/>
     <use xlink:href="#DejaVuSans-20" x="903.853516"/>
     <use xlink:href="#DejaVuSans-64" x="935.640625"/>
     <use xlink:href="#DejaVuSans-69" x="999.117188"/>
     <use xlink:href="#DejaVuSans-73" x="1026.900391"/>
     <use xlink:href="#DejaVuSans-74" x="1079"/>
     <use xlink:href="#DejaVuSans-72" x="1118.208984"/>
     <use xlink:href="#DejaVuSans-69" x="1159.322266"/>
     <use xlink:href="#DejaVuSans-62" x="1187.105469"/>
     <use xlink:href="#DejaVuSans-75" x="1250.582031"/>
     <use xlink:href="#DejaVuSans-74" x="1313.960938"/>
     <use xlink:href="#DejaVuSans-69" x="1353.169922"/>
     <use xlink:href="#DejaVuSans-6f" x="1380.953125"/>
     <use xlink:href="#DejaVuSans-6e" x="1442.134766"/>
    </g>
   </g>
  </g>
 </g>
 <defs>
  <clipPath id="pd248acaabd">
   <rect x="61.13" y="36.24" width="388.87" height="257.32"/>
  </clipPath>
 </defs>
</svg>
